<?xml version="1.0" encoding="UTF-8"?>
<svg version="1.1" xmlns="http://www.w3.org/2000/svg" width="399" height="398">
<path d="M0 0 C0.85128479 -0.00570007 1.70256958 -0.01140015 2.57965088 -0.01727295 C4.37812073 -0.02667269 6.17660741 -0.0332368 7.97509766 -0.03710938 C10.65430146 -0.04670022 13.33269813 -0.07772329 16.01171875 -0.109375 C34.92651557 -0.22579754 52.86480995 2.74242741 70.953125 8.203125 C71.64937988 8.41275879 72.34563477 8.62239258 73.06298828 8.83837891 C91.42252745 14.5180744 109.28622056 23.06979342 124.953125 34.203125 C126.44779297 35.26080078 126.44779297 35.26080078 127.97265625 36.33984375 C143.34246162 47.56000311 157.2541659 60.16160616 168.953125 75.203125 C169.38383301 75.75210449 169.81454102 76.30108398 170.25830078 76.86669922 C177.94879844 86.73547837 184.22908927 97.08733866 189.953125 108.203125 C190.31535156 108.90163574 190.67757813 109.60014648 191.05078125 110.31982422 C203.23968377 134.11854394 211.00186695 161.29169196 211.15625 188.12890625 C211.16330963 188.95009949 211.17036926 189.77129272 211.17764282 190.61737061 C211.40278166 224.47777121 211.40278166 224.47777121 207.953125 239.203125 C207.65510986 240.54286377 207.65510986 240.54286377 207.35107422 241.90966797 C195.69425677 293.47034741 164.86821762 337.88262157 120.953125 367.203125 C115.12168197 370.85994601 109.08133995 374.07724956 102.953125 377.203125 C102.28168457 377.55568359 101.61024414 377.90824219 100.91845703 378.27148438 C77.32982263 390.59468176 49.60061163 398.26315124 22.90625 398.40625 C22.05496521 398.41195007 21.20368042 398.41765015 20.32659912 398.42352295 C18.52812927 398.43292269 16.72964259 398.4394868 14.93115234 398.44335938 C12.25194854 398.45295022 9.57355187 398.48397329 6.89453125 398.515625 C-12.02026557 398.63204754 -29.95855995 395.66382259 -48.046875 390.203125 C-48.74312988 389.99349121 -49.43938477 389.78385742 -50.15673828 389.56787109 C-68.51627745 383.8881756 -86.37997056 375.33645658 -102.046875 364.203125 C-103.04332031 363.49800781 -104.03976563 362.79289062 -105.06640625 362.06640625 C-120.43621162 350.84624689 -134.3479159 338.24464384 -146.046875 323.203125 C-146.47758301 322.65414551 -146.90829102 322.10516602 -147.35205078 321.53955078 C-155.04254844 311.67077163 -161.32283927 301.31891134 -167.046875 290.203125 C-167.40910156 289.50461426 -167.77132812 288.80610352 -168.14453125 288.08642578 C-180.33343377 264.28770606 -188.09561695 237.11455804 -188.25 210.27734375 C-188.25705963 209.45615051 -188.26411926 208.63495728 -188.27139282 207.78887939 C-188.49653166 173.92847879 -188.49653166 173.92847879 -185.046875 159.203125 C-184.84819824 158.30996582 -184.64952148 157.41680664 -184.44482422 156.49658203 C-172.78800677 104.93590259 -141.96196762 60.52362843 -98.046875 31.203125 C-92.21543197 27.54630399 -86.17508995 24.32900044 -80.046875 21.203125 C-79.37543457 20.85056641 -78.70399414 20.49800781 -78.01220703 20.13476562 C-54.42357263 7.81156824 -26.69436163 0.14309876 0 0 Z " fill="#020202" transform="translate(188.046875,-0.203125)"/>
<path d="M0 0 C16.40890242 2.64211141 31.6658086 7.04767701 46.78515625 13.9921875 C48.32237356 14.69166204 49.87322716 15.36162537 51.43359375 16.0078125 C70.71187231 24.20036476 88.08339382 37.47298996 103 52 C103.55606934 52.53560547 104.11213867 53.07121094 104.68505859 53.62304688 C113.58035735 62.20949882 122.79287804 71.20500529 129 82 C129 82.99 129 83.98 129 85 C129.66 85 130.32 85 131 85 C132.43194595 87.03753976 133.72889327 89.05286967 135 91.1875 C135.53367187 92.0547168 135.53367187 92.0547168 136.078125 92.93945312 C138.06180937 96.21475287 139.61719574 99.44035933 141 103 C141.62665867 104.27712106 142.26448581 105.54879079 142.91015625 106.81640625 C155.55034782 131.810177 161.77673511 158.87032309 161.46655273 186.84204102 C161.43739263 189.69801548 161.44605881 192.55214014 161.45898438 195.40820312 C161.44198216 211.17737319 159.80716775 226.5556674 155.1875 241.6875 C154.92598145 242.562854 154.66446289 243.43820801 154.39501953 244.34008789 C153.6170636 246.90033387 152.8144171 249.4511475 152 252 C151.78005371 252.70189453 151.56010742 253.40378906 151.33349609 254.12695312 C135.98102058 302.11082579 97.62193722 340.37386957 53.81958008 363.11132812 C46.37023713 366.90152156 38.90440339 370.24916574 31 373 C30.37303223 373.21849609 29.74606445 373.43699219 29.10009766 373.66210938 C24.12507633 375.35647369 19.1033565 376.74825308 14 378 C13.20207031 378.19899902 12.40414062 378.39799805 11.58203125 378.60302734 C-2.75346346 381.99520545 -16.96606532 382.39463436 -31.625 382.4375 C-32.52878387 382.4436734 -33.43256775 382.4498468 -34.36373901 382.45620728 C-59.12962756 382.5649911 -80.2567595 376.17569421 -98.4921875 358.59765625 C-106.27072888 350.54044438 -112.44661118 341.70317387 -118 332 C-118.70962891 330.78763672 -118.70962891 330.78763672 -119.43359375 329.55078125 C-130.95312111 308.41370457 -130.92149108 281.85908212 -125.22265625 258.86328125 C-121.42400427 246.3913123 -115.10391503 235.15410867 -107 225 C-106.43539062 224.28199219 -105.87078125 223.56398437 -105.2890625 222.82421875 C-100.86522454 217.47615173 -95.72192615 212.93317045 -90 209 C-89.34 209 -88.68 209 -88 209 C-87.67 208.01 -87.34 207.02 -87 206 C-84.77734375 204.53515625 -84.77734375 204.53515625 -81.9375 203.0625 C-80.93460938 202.54042969 -79.93171875 202.01835937 -78.8984375 201.48046875 C-77.94195312 200.99191406 -76.98546875 200.50335938 -76 200 C-74.96746094 199.43732422 -74.96746094 199.43732422 -73.9140625 198.86328125 C-61.48327717 192.22828402 -48.27487708 190.18477066 -34.375 189.5625 C-6.07426341 188.23825961 18.89440155 179.86994352 39 159 C41.24847855 156.09241969 43.36187319 153.14384108 45.40625 150.08984375 C45.9321875 149.40019531 46.458125 148.71054688 47 148 C47.66 148 48.32 148 49 148 C49.27328125 147.26007813 49.5465625 146.52015625 49.828125 145.7578125 C50.92518376 143.17606755 52.16944815 141.17784705 53.75 138.875 C56.77762168 133.93558772 58.578983 128.86729959 60.3125 123.375 C60.56676758 122.57562012 60.82103516 121.77624023 61.08300781 120.95263672 C62.59807202 115.95704747 63.41202102 111.18120095 64 106 C64.33 105.67 64.66 105.34 65 105 C66.34841485 77.12230692 60.25141535 51.74886853 42 30 C34.08540146 21.31234765 25.97654479 14.8527833 15.609375 9.3828125 C13.42741386 8.22650375 11.30653531 7.01579543 9.1875 5.75 C6.16364441 4.08984399 3.30334218 2.96683186 0 2 C0 1.34 0 0.68 0 0 Z " fill="#FBFBF9" transform="translate(230,10)"/>
<path d="M0 0 C0.85128479 -0.00570007 1.70256958 -0.01140015 2.57965088 -0.01727295 C4.37812073 -0.02667269 6.17660741 -0.0332368 7.97509766 -0.03710938 C10.65430146 -0.04670022 13.33269813 -0.07772329 16.01171875 -0.109375 C34.92651557 -0.22579754 52.86480995 2.74242741 70.953125 8.203125 C71.64937988 8.41275879 72.34563477 8.62239258 73.06298828 8.83837891 C91.42252745 14.5180744 109.28622056 23.06979342 124.953125 34.203125 C126.44779297 35.26080078 126.44779297 35.26080078 127.97265625 36.33984375 C143.34246162 47.56000311 157.2541659 60.16160616 168.953125 75.203125 C169.38383301 75.75210449 169.81454102 76.30108398 170.25830078 76.86669922 C177.94879844 86.73547837 184.22908927 97.08733866 189.953125 108.203125 C190.31535156 108.90163574 190.67757813 109.60014648 191.05078125 110.31982422 C203.23968377 134.11854394 211.00186695 161.29169196 211.15625 188.12890625 C211.16330963 188.95009949 211.17036926 189.77129272 211.17764282 190.61737061 C211.40278166 224.47777121 211.40278166 224.47777121 207.953125 239.203125 C207.65510986 240.54286377 207.65510986 240.54286377 207.35107422 241.90966797 C195.69425677 293.47034741 164.86821762 337.88262157 120.953125 367.203125 C115.12168197 370.85994601 109.08133995 374.07724956 102.953125 377.203125 C102.28168457 377.55568359 101.61024414 377.90824219 100.91845703 378.27148438 C77.32982263 390.59468176 49.60061163 398.26315124 22.90625 398.40625 C22.05496521 398.41195007 21.20368042 398.41765015 20.32659912 398.42352295 C18.52812927 398.43292269 16.72964259 398.4394868 14.93115234 398.44335938 C12.25194854 398.45295022 9.57355187 398.48397329 6.89453125 398.515625 C-12.02026557 398.63204754 -29.95855995 395.66382259 -48.046875 390.203125 C-48.74312988 389.99349121 -49.43938477 389.78385742 -50.15673828 389.56787109 C-68.51627745 383.8881756 -86.37997056 375.33645658 -102.046875 364.203125 C-103.04332031 363.49800781 -104.03976563 362.79289062 -105.06640625 362.06640625 C-120.43621162 350.84624689 -134.3479159 338.24464384 -146.046875 323.203125 C-146.47758301 322.65414551 -146.90829102 322.10516602 -147.35205078 321.53955078 C-155.04254844 311.67077163 -161.32283927 301.31891134 -167.046875 290.203125 C-167.40910156 289.50461426 -167.77132812 288.80610352 -168.14453125 288.08642578 C-180.33343377 264.28770606 -188.09561695 237.11455804 -188.25 210.27734375 C-188.25705963 209.45615051 -188.26411926 208.63495728 -188.27139282 207.78887939 C-188.49653166 173.92847879 -188.49653166 173.92847879 -185.046875 159.203125 C-184.84819824 158.30996582 -184.64952148 157.41680664 -184.44482422 156.49658203 C-172.78800677 104.93590259 -141.96196762 60.52362843 -98.046875 31.203125 C-92.21543197 27.54630399 -86.17508995 24.32900044 -80.046875 21.203125 C-79.37543457 20.85056641 -78.70399414 20.49800781 -78.01220703 20.13476562 C-54.42357263 7.81156824 -26.69436163 0.14309876 0 0 Z M-46.21191406 12.66552734 C-48.69802953 13.39389699 -51.21512902 13.97601782 -53.734375 14.578125 C-59.08974062 16.00844004 -63.96215767 18.34575767 -68.92260742 20.77880859 C-71.92766123 22.25081823 -74.74187694 23.59016797 -78.046875 24.203125 C-78.046875 24.863125 -78.046875 25.523125 -78.046875 26.203125 C-78.995625 26.5125 -79.944375 26.821875 -80.921875 27.140625 C-83.90767908 28.07707242 -83.90767908 28.07707242 -86.046875 29.203125 C-86.046875 29.863125 -86.046875 30.523125 -86.046875 31.203125 C-87.36365234 31.59564453 -87.36365234 31.59564453 -88.70703125 31.99609375 C-93.99932423 33.908747 -98.39441796 37.08355843 -103.046875 40.203125 C-103.79453125 40.698125 -104.5421875 41.193125 -105.3125 41.703125 C-106.93317301 42.80992608 -108.4977344 43.99823786 -110.046875 45.203125 C-110.046875 45.863125 -110.046875 46.523125 -110.046875 47.203125 C-110.8821875 47.2959375 -110.8821875 47.2959375 -111.734375 47.390625 C-115.02808283 48.5478737 -116.64192254 50.68631429 -119.046875 53.203125 C-120.18384784 54.17195397 -121.33019188 55.12986442 -122.484375 56.078125 C-126.04806636 59.09475847 -129.35233252 62.37351884 -132.046875 66.203125 C-132.046875 66.863125 -132.046875 67.523125 -132.046875 68.203125 C-132.59988281 68.41324219 -133.15289062 68.62335938 -133.72265625 68.83984375 C-136.87052758 70.68624223 -138.94191849 73.23612793 -141.234375 76.015625 C-141.70979736 76.58587402 -142.18521973 77.15612305 -142.67504883 77.74365234 C-151.66009816 87.60577703 -151.66009816 87.60577703 -156.046875 99.203125 C-156.706875 99.203125 -157.366875 99.203125 -158.046875 99.203125 C-158.32885742 99.79738281 -158.61083984 100.39164062 -158.90136719 101.00390625 C-160.19902402 103.73738159 -161.49794136 106.47025618 -162.796875 109.203125 C-163.2403125 110.13769531 -163.68375 111.07226562 -164.140625 112.03515625 C-166.1151846 116.18753894 -168.10019319 120.32326737 -170.21484375 124.40625 C-172.09686755 128.14935449 -173.41581461 131.94371814 -174.609375 135.953125 C-174.81989502 136.64051758 -175.03041504 137.32791016 -175.24731445 138.03613281 C-176.81542766 143.22903941 -178.16683808 148.46014074 -179.37109375 153.75 C-180.046875 156.203125 -180.046875 156.203125 -181.03588867 158.07421875 C-190.42164167 177.83847041 -186.50192239 213.35473609 -182.42724609 234.20068359 C-181.8559044 237.20847858 -181.43337994 240.23753569 -180.984375 243.265625 C-180.45401379 246.78621325 -180.07736706 248.15738691 -178.046875 251.203125 C-177.41414076 253.65928429 -176.84026416 256.10268551 -176.296875 258.578125 C-174.48930933 266.29881248 -171.65995267 273.13237085 -168.046875 280.203125 C-164.046875 288.203125 -164.046875 288.203125 -163.14453125 290.55859375 C-161.00150373 295.72168852 -157.91313368 300.41573173 -155.046875 305.203125 C-154.551875 306.04746094 -154.056875 306.89179688 -153.546875 307.76171875 C-152.43876096 309.61187344 -151.25107796 311.41402346 -150.046875 313.203125 C-149.386875 313.203125 -148.726875 313.203125 -148.046875 313.203125 C-147.799375 313.739375 -147.551875 314.275625 -147.296875 314.828125 C-145.74034963 317.7855232 -144.01251827 320.50036551 -142.046875 323.203125 C-141.386875 323.203125 -140.726875 323.203125 -140.046875 323.203125 C-139.964375 323.821875 -139.881875 324.440625 -139.796875 325.078125 C-139.25876767 327.38659304 -139.25876767 327.38659304 -137.046875 328.203125 C-136.386875 328.533125 -135.726875 328.863125 -135.046875 329.203125 C-134.923125 329.80125 -134.799375 330.399375 -134.671875 331.015625 C-133.8335035 333.94992525 -132.00478888 335.02902712 -129.66015625 336.84765625 C-127.11218014 338.98844973 -125.16740321 341.64761665 -123.046875 344.203125 C-119.97306327 347.24579004 -119.97306327 347.24579004 -116.046875 348.203125 C-115.799375 348.8425 -115.551875 349.481875 -115.296875 350.140625 C-114.23125067 352.39054041 -114.23125067 352.39054041 -111.921875 352.953125 C-111.303125 353.035625 -110.684375 353.118125 -110.046875 353.203125 C-110.046875 353.863125 -110.046875 354.523125 -110.046875 355.203125 C-107.41002753 357.60132805 -107.41002753 357.60132805 -104.046875 358.203125 C-104.046875 358.863125 -104.046875 359.523125 -104.046875 360.203125 C-102.13671539 361.7985244 -102.13671539 361.7985244 -99.734375 363.328125 C-98.53361328 364.13636719 -98.53361328 364.13636719 -97.30859375 364.9609375 C-95.03868794 366.44382283 -95.03868794 366.44382283 -92.046875 366.203125 C-92.046875 366.863125 -92.046875 367.523125 -92.046875 368.203125 C-73.90882263 378.20572741 -54.78160394 388.30026295 -34.046875 391.203125 C-33.41338135 391.52458496 -32.7798877 391.84604492 -32.12719727 392.17724609 C-3.4850332 406.30168846 45.26473726 394.92303192 73.953125 387.203125 C73.953125 386.543125 73.953125 385.883125 73.953125 385.203125 C76.593125 384.873125 79.233125 384.543125 81.953125 384.203125 C81.953125 383.543125 81.953125 382.883125 81.953125 382.203125 C82.65179688 382.08195312 83.35046875 381.96078125 84.0703125 381.8359375 C93.11828126 379.84979802 101.10513626 375.84715293 108.7109375 370.65625 C110.953125 369.203125 110.953125 369.203125 113.953125 368.203125 C113.953125 367.543125 113.953125 366.883125 113.953125 366.203125 C114.613125 365.955625 115.273125 365.708125 115.953125 365.453125 C119.71673407 363.88495455 123.3242674 362.05807454 126.953125 360.203125 C126.953125 359.213125 126.953125 358.223125 126.953125 357.203125 C127.943125 357.203125 128.933125 357.203125 129.953125 357.203125 C129.953125 356.543125 129.953125 355.883125 129.953125 355.203125 C130.55125 354.914375 131.149375 354.625625 131.765625 354.328125 C134.14640292 353.15570474 134.14640292 353.15570474 136.953125 351.203125 C136.953125 350.543125 136.953125 349.883125 136.953125 349.203125 C137.51 348.935 138.066875 348.666875 138.640625 348.390625 C139.40375 347.99875 140.166875 347.606875 140.953125 347.203125 C141.736875 346.81125 142.520625 346.419375 143.328125 346.015625 C146.27804715 343.97877399 148.21749799 341.73059525 150.46875 338.96875 C151.953125 337.203125 151.953125 337.203125 154.703125 334.578125 C156.98062724 332.17409485 157.96909482 330.3341301 158.953125 327.203125 C159.613125 327.203125 160.273125 327.203125 160.953125 327.203125 C160.953125 326.543125 160.953125 325.883125 160.953125 325.203125 C161.613125 325.203125 162.273125 325.203125 162.953125 325.203125 C166.25602692 321.75110667 166.25602692 321.75110667 166.953125 317.203125 C167.943125 317.203125 168.933125 317.203125 169.953125 317.203125 C170.283125 315.553125 170.613125 313.903125 170.953125 312.203125 C171.613125 312.203125 172.273125 312.203125 172.953125 312.203125 C177.89630565 305.76603157 177.89630565 305.76603157 179.953125 298.203125 C180.613125 298.203125 181.273125 298.203125 181.953125 298.203125 C182.26765625 297.5740625 182.5821875 296.945 182.90625 296.296875 C183.54820312 295.01296875 183.54820312 295.01296875 184.203125 293.703125 C184.66074219 292.78402344 185.11835938 291.86492187 185.58984375 290.91796875 C186.39211844 289.32031572 187.20337282 287.72702175 188.03515625 286.14453125 C190.88606857 280.68122916 192.91315488 275.00984492 194.953125 269.203125 C197.62046313 261.95091534 197.62046313 261.95091534 198.8828125 259.11328125 C212.09966792 223.17694078 211.62391549 173.70026567 197.68334961 138.08227539 C196.98770035 136.29210076 196.35911058 134.47629462 195.734375 132.66015625 C190.40466724 117.49973754 183.08722473 100.81904507 172.953125 88.203125 C172.293125 88.203125 171.633125 88.203125 170.953125 88.203125 C170.705625 87.666875 170.458125 87.130625 170.203125 86.578125 C166.9508474 80.39879756 162.74116576 75.65150069 157.9765625 70.5703125 C155.953125 68.203125 155.953125 68.203125 154.90234375 66.09375 C153.75100757 63.80055365 152.3874934 62.67061713 150.390625 61.078125 C147.05034722 58.39756944 147.05034722 58.39756944 145.953125 56.203125 C145.251875 55.790625 144.550625 55.378125 143.828125 54.953125 C139.37858171 52.24470734 135.5206679 48.86863933 131.953125 45.078125 C129.80142349 43.06090483 127.52051305 41.79871619 124.9375 40.40234375 C121.87966386 38.55439947 119.19565401 36.27089115 116.45703125 33.984375 C113.14221646 31.62625402 109.61304463 29.95914492 105.953125 28.203125 C104.6185318 27.53898404 103.285179 26.87234422 101.953125 26.203125 C101.293125 25.873125 100.633125 25.543125 99.953125 25.203125 C97.953125 24.203125 95.953125 23.203125 93.953125 22.203125 C93.29868408 21.87699219 92.64424316 21.55085938 91.9699707 21.21484375 C90.57697454 20.51606926 89.18769354 19.80985669 87.80151367 19.09765625 C87.1026001 18.74058594 86.40368652 18.38351563 85.68359375 18.015625 C85.05606201 17.69207031 84.42853027 17.36851563 83.78198242 17.03515625 C81.36813527 15.9369863 78.87784489 15.33647983 76.29296875 14.7734375 C72.15756959 13.7654771 68.13973852 12.34735273 64.1015625 11.0078125 C60.91647909 10.19375892 58.22486289 10.05574942 54.953125 10.203125 C54.953125 9.543125 54.953125 8.883125 54.953125 8.203125 C52.18313685 7.71860562 49.41227818 7.24045005 46.640625 6.765625 C45.87427734 6.63091797 45.10792969 6.49621094 44.31835938 6.35742188 C13.83045108 1.17068229 -16.74024085 3.72621797 -46.21191406 12.66552734 Z " fill="#F4F3F3" transform="translate(188.046875,-0.203125)"/>
<path d="M0 0 C1.875 1.3125 1.875 1.3125 3.875 4.3125 C4.20227273 9.65795455 4.20227273 9.65795455 2.875 12.3125 C2.215 12.3125 1.555 12.3125 0.875 12.3125 C1.04902344 13.27285156 1.22304687 14.23320313 1.40234375 15.22265625 C2.05250505 19.77378537 1.75787958 24.17998787 1.4375 28.75 C1.38529297 29.57693359 1.33308594 30.40386719 1.27929688 31.25585938 C1.15090237 33.27515478 1.01384576 35.29389629 0.875 37.3125 C-0.115 37.6425 -1.105 37.9725 -2.125 38.3125 C-2.125 39.6325 -2.125 40.9525 -2.125 42.3125 C-2.785 42.3125 -3.445 42.3125 -4.125 42.3125 C-3.795 42.9725 -3.465 43.6325 -3.125 44.3125 C-2.54247573 51.53580097 -2.54247573 51.53580097 -5 54.8125 C-7.125 56.3125 -7.125 56.3125 -9.125 56.3125 C-9.125 56.9725 -9.125 57.6325 -9.125 58.3125 C-8.25875 58.4053125 -8.25875 58.4053125 -7.375 58.5 C-4.1571739 59.66199276 -3.03013846 61.51829693 -1.125 64.3125 C0 66.8125 0 66.8125 0.875 69.3125 C1.24625 70.240625 1.6175 71.16875 2 72.125 C2.28875 72.846875 2.5775 73.56875 2.875 74.3125 C5.845 74.3125 8.815 74.3125 11.875 74.3125 C11.875 73.6525 11.875 72.9925 11.875 72.3125 C12.865 72.3125 13.855 72.3125 14.875 72.3125 C15.41125 71.301875 15.9475 70.29125 16.5 69.25 C19.5702074 63.89346794 23.02885555 58.74356997 28.875 56.3125 C31.80240441 55.95549946 33.23754023 55.87287257 35.6875 57.5625 C36.875 59.3125 36.875 59.3125 36.875 63.3125 C36.215 63.3125 35.555 63.3125 34.875 63.3125 C34.83052734 64.41851562 34.83052734 64.41851562 34.78515625 65.546875 C33.48806649 69.48824646 30.74986443 70.63275929 27.3125 72.5625 C20.98274456 76.362913 16.45300327 80.47267806 11.875 86.3125 C5.63619952 93.95539247 -2.06745477 103.08820867 -12.3359375 104.6484375 C-16.47158315 104.72308814 -19.2341798 104.53845053 -22.75 102.25 C-26.96809042 99.82850365 -28.43517228 100.37453446 -33.125 101.3125 C-42.98313149 102.11180796 -42.98313149 102.11180796 -46.625 99.5625 C-47.12 98.82 -47.615 98.0775 -48.125 97.3125 C-48.99125 96.3225 -48.99125 96.3225 -49.875 95.3125 C-51.125 93.3125 -51.125 93.3125 -51.125 89.3125 C-51.785 89.3125 -52.445 89.3125 -53.125 89.3125 C-53.29317795 84.70457676 -53.4536755 80.09647263 -53.60717773 75.48803711 C-53.66042409 73.92155834 -53.71573889 72.35514843 -53.77319336 70.78881836 C-53.85559157 68.53254028 -53.9304563 66.27611621 -54.00390625 64.01953125 C-54.03094131 63.32350296 -54.05797638 62.62747467 -54.08583069 61.91035461 C-54.19744619 58.24298428 -54.26364982 54.82363691 -53.125 51.3125 C-49.82158177 49.11022118 -46.94056611 48.33452664 -43.125 47.3125 C-41.64 46.8175 -41.64 46.8175 -40.125 46.3125 C-39.795 45.3225 -39.465 44.3325 -39.125 43.3125 C-33.375 43.1875 -33.375 43.1875 -31.125 44.3125 C-31.125 43.6525 -31.125 42.9925 -31.125 42.3125 C-27.72159693 40.21809811 -25.08062822 40.05452425 -21.125 40.3125 C-20.135 40.8075 -20.135 40.8075 -19.125 41.3125 C-17.0875237 41.54108114 -15.04459697 41.72274278 -13 41.875 C-11.90429688 41.95878906 -10.80859375 42.04257813 -9.6796875 42.12890625 C-8.41511719 42.21978516 -8.41511719 42.21978516 -7.125 42.3125 C-7.805625 41.631875 -8.48625 40.95125 -9.1875 40.25 C-11.125 37.3125 -11.125 37.3125 -11 33.8125 C-10.125 30.3125 -10.125 30.3125 -9.10107422 27.94799805 C-8.03369125 25.06595724 -7.78449199 22.70799737 -7.6328125 19.64453125 C-7.56707031 18.58685547 -7.50132812 17.52917969 -7.43359375 16.43945312 C-7.31057379 14.21855021 -7.19607412 11.99715992 -7.08984375 9.77539062 C-7.02152344 8.72158203 -6.95320313 7.66777344 -6.8828125 6.58203125 C-6.8327002 5.61885986 -6.78258789 4.65568848 -6.73095703 3.66333008 C-6.125 1.3125 -6.125 1.3125 -4.21044922 -0.05981445 C-2.125 -0.6875 -2.125 -0.6875 0 0 Z " fill="#F7F7F5" transform="translate(227.125,32.6875)"/>
<path d="M0 0 C3.00780075 1.57795608 3.95983028 1.88060017 7.5 1.6875 C9.97036807 1.12057099 9.97036807 1.12057099 11.0625 -0.125 C16.1525495 -0.38381608 20.38760544 -0.40808804 25.0625 1.875 C31.27961245 9.20231111 30.52045581 21.08105091 30.8125 30.125 C30.86792969 31.37796875 30.92335938 32.6309375 30.98046875 33.921875 C31.04427734 35.73171875 31.04427734 35.73171875 31.109375 37.578125 C31.16883301 39.21249512 31.16883301 39.21249512 31.22949219 40.87988281 C31.0549486 44.0104395 30.53788829 46.11536179 29.0625 48.875 C26.60365028 49.67412616 24.63159202 49.875 22.0625 49.875 C21.0725 50.865 21.0725 50.865 20.0625 51.875 C19.0725 52.865 19.0725 52.865 18.0625 53.875 C17.4025 53.875 16.7425 53.875 16.0625 53.875 C16.0625 54.535 16.0625 55.195 16.0625 55.875 C13.7525 55.545 11.4425 55.215 9.0625 54.875 C8.7325 55.865 8.4025 56.855 8.0625 57.875 C2.55331803 59.00187813 2.55331803 59.00187813 0.33984375 58.4296875 C-3.59135924 57.47217322 -7.67979411 57.51210565 -11.71289062 57.35742188 C-13.45946538 57.26640077 -15.20040594 57.07825467 -16.9375 56.875 C-18.46241998 53.82516004 -18.17312548 51.2326631 -17.9375 47.875 C-16.10634793 45.25906847 -15.02781634 44.90510545 -11.9375 43.875 C-11.4425 42.885 -11.4425 42.885 -10.9375 41.875 C-11.88625 41.606875 -12.835 41.33875 -13.8125 41.0625 C-16.9375 39.875 -16.9375 39.875 -18.9375 36.875 C-19.0625 34.1875 -19.0625 34.1875 -18.9375 31.875 C-17.9475 31.545 -16.9575 31.215 -15.9375 30.875 C-15.9375 30.215 -15.9375 29.555 -15.9375 28.875 C-19.4025 29.37 -19.4025 29.37 -22.9375 29.875 C-23.5975 28.555 -24.2575 27.235 -24.9375 25.875 C-29.5575 25.875 -34.1775 25.875 -38.9375 25.875 C-38.9375 27.525 -38.9375 29.175 -38.9375 30.875 C-39.5975 30.875 -40.2575 30.875 -40.9375 30.875 C-41.123125 31.57625 -41.30875 32.2775 -41.5 33 C-43.49661406 36.99322812 -46.22430561 39.43556252 -49.9375 41.875 C-53.25 42.875 -53.25 42.875 -55.9375 42.875 C-56.5975 42.215 -57.2575 41.555 -57.9375 40.875 C-57.84680232 37.51918571 -57.07281938 36.0399205 -54.9375 33.4375 C-51.15980898 30.21072225 -47.09699935 27.57943639 -42.9375 24.875 C-39.20876357 22.38917572 -37.09385865 19.74082198 -34.625 16.0625 C-31.28393779 11.13425206 -27.62296821 7.51203671 -22.9375 3.875 C-22.33808594 3.3903125 -21.73867187 2.905625 -21.12109375 2.40625 C-13.99906535 -3.07468461 -7.93797039 -4.32980203 0 0 Z " fill="#050504" transform="translate(193.9375,266.125)"/>
<path d="M0 0 C2.64 0.33 5.28 0.66 8 1 C8 1.66 8 2.32 8 3 C9.01707031 3.03867188 9.01707031 3.03867188 10.0546875 3.078125 C16.10017708 3.44654819 20.99529086 4.46165775 26.515625 6.96484375 C29.07998317 8.09779473 29.07998317 8.09779473 32.22265625 8.86328125 C36.79079739 10.23797522 40.90581997 12.16775412 45.1875 14.25 C46.02684082 14.65549072 46.86618164 15.06098145 47.73095703 15.47875977 C49.40060817 16.28660886 51.06925926 17.0965287 52.73681641 17.90869141 C54.62949743 18.82134342 56.53766448 19.70178798 58.44921875 20.57421875 C64.86555507 23.56394021 70.25173873 27.22149948 75.72607422 31.66186523 C78.16652316 33.64028743 79.98650121 34.9955004 83 36 C84.35824882 37.30794331 85.68456137 38.64900897 87 40 C88.3217887 41.22095121 89.65621123 42.42830499 91 43.625 C91.99 44.51058594 91.99 44.51058594 93 45.4140625 C94.91571153 47.0515281 94.91571153 47.0515281 97.05859375 47.99609375 C99.32316393 49.16710892 100.46869679 50.46118402 102.0625 52.4375 C103.46312759 54.15763415 104.82630246 55.82871492 106.40625 57.38671875 C108.58133185 59.58845601 110.48646551 61.97322061 112.4375 64.375 C113.19933594 65.31085938 113.96117187 66.24671875 114.74609375 67.2109375 C116.83900845 69.80078342 118.92260547 72.39769636 121 75 C121.5775 75.721875 122.155 76.44375 122.75 77.1875 C124 79 124 79 124 81 C124.66 81 125.32 81 126 81 C127.59754064 83.15402251 129.02906539 85.28681342 130.4375 87.5625 C130.87344482 88.26632813 131.30938965 88.97015625 131.75854492 89.6953125 C140.57246888 104.30115415 147.40467784 119.59326386 152 136 C152.49239718 137.44572256 152.99011614 138.88963981 153.4921875 140.33203125 C155.0974765 145.09337901 156.162034 149.88596595 157.125 154.8125 C157.29386719 155.62525391 157.46273437 156.43800781 157.63671875 157.27539062 C159.93802459 168.84534166 160.23961386 180.48197746 160.25 192.25 C160.25067474 192.94498596 160.25134949 193.63997192 160.25204468 194.35601807 C160.22217354 213.90179546 157.85937022 232.32685949 152 251 C151.47842291 252.87479324 150.95745403 254.74975597 150.4375 256.625 C149.30659408 260.34996132 147.78708002 263.69979951 145.96875 267.13671875 C145.06089317 268.88287886 144.27525871 270.691063 143.5 272.5 C142.11016067 275.74295844 140.58046703 278.85692647 138.984375 282 C137.5318702 284.95112086 136.26489811 287.96424453 135 291 C134.34 291 133.68 291 133 291 C132.62875 292.5778125 132.62875 292.5778125 132.25 294.1875 C131.22611814 297.82633195 129.51616115 300.15917289 127 303 C126.67 303.66 126.34 304.32 126 305 C125.34 305 124.68 305 124 305 C123.67 306.65 123.34 308.3 123 310 C122.01 310 121.02 310 120 310 C119.8453125 310.86625 119.8453125 310.86625 119.6875 311.75 C118.89103535 314.35661158 117.80934723 315.9735311 116 318 C115.34 318 114.68 318 114 318 C114 318.66 114 319.32 114 320 C113.34 320 112.68 320 112 320 C111.6596875 321.0828125 111.6596875 321.0828125 111.3125 322.1875 C109.72514618 325.58897247 107.7130647 327.41025643 105 330 C104.01179344 331.17998789 103.03296863 332.36788113 102.0625 333.5625 C98.6657921 337.58077043 95.0305795 340.32314017 90 342 C89.67 342.99 89.34 343.98 89 345 C85.55555556 348 85.55555556 348 83 348 C83 348.66 83 349.32 83 350 C82.01 350 81.02 350 80 350 C80 350.99 80 351.98 80 353 C75.72886302 355.18326108 71.49797113 357.31326082 67 359 C67 359.66 67 360.32 67 361 C66.3709375 361.30292969 65.741875 361.60585938 65.09375 361.91796875 C60.93771203 363.95217408 56.91079441 365.98630291 53.0625 368.5625 C47.79225728 371.96126877 41.33657215 375 35 375 C35 375.66 35 376.32 35 377 C32.36 377.33 29.72 377.66 27 378 C27 378.66 27 379.32 27 380 C23.16590928 380.97251571 19.32877552 381.93196299 15.48876953 382.88085938 C13.56252115 383.35946565 11.63863414 383.84754489 9.71484375 384.3359375 C-5.17902846 388.00212143 -19.69226336 389.38421788 -35 389.3125 C-36.12656006 389.31126129 -36.12656006 389.31126129 -37.27587891 389.30999756 C-72.16659181 389.22227213 -72.16659181 389.22227213 -80 384 C-79.34 384 -78.68 384 -78 384 C-77.67 382.35 -77.34 380.7 -77 379 C-76.47792969 379.19335938 -75.95585937 379.38671875 -75.41796875 379.5859375 C-62.73561161 384.07251568 -50.37642879 384.44074299 -37.0625 384.4375 C-35.6707959 384.43910126 -35.6707959 384.43910126 -34.25097656 384.44073486 C-4.4138931 384.39130596 22.18332743 377.87922366 49 365 C49.64001953 364.69368652 50.28003906 364.38737305 50.93945312 364.07177734 C66.31625465 356.58953244 80.66637406 346.8393394 93 335 C94.30787843 333.89036299 95.62029468 332.78604924 96.9375 331.6875 C122.87468559 308.86901408 140.2433176 275.38640881 149.6875 242.625 C149.985354 241.60929932 150.28320801 240.59359863 150.59008789 239.54711914 C154.89225153 224.17107137 155.43964109 208.97881527 155.4375 193.125 C155.43959976 191.63548325 155.43959976 191.63548325 155.44174194 190.11587524 C155.42368443 174.52219573 154.36161967 160.0560924 150 145 C149.79181641 144.23606934 149.58363281 143.47213867 149.36914062 142.68505859 C146.12867424 130.84791805 141.78366119 118.91947005 136.06640625 108.03515625 C134.11508318 104.31120269 132.30963215 100.51203188 130.46484375 96.734375 C129.09093988 94.00189561 129.09093988 94.00189561 127.31640625 91.765625 C126 90 126 90 126 88 C125.34 88 124.68 88 124 88 C123.77828125 87.51273437 123.5565625 87.02546875 123.328125 86.5234375 C111.42355602 62.80056454 86.8051238 44.03085381 65 30 C64.1234375 29.43152344 63.246875 28.86304687 62.34375 28.27734375 C51.29360212 21.37100133 39.17959929 16.5109627 27 12 C26.29746094 11.71382812 25.59492188 11.42765625 24.87109375 11.1328125 C19.6063282 9.0005275 14.23215619 7.91848707 8.66015625 6.84375 C7.34337891 6.42609375 7.34337891 6.42609375 6 6 C5.505 4.515 5.505 4.515 5 3 C2.49552484 1.78130071 2.49552484 1.78130071 0 1 C0 0.67 0 0.34 0 0 Z " fill="#232121" transform="translate(235,7)"/>
<path d="M0 0 C0.85128479 -0.00570007 1.70256958 -0.01140015 2.57965088 -0.01727295 C4.37812073 -0.02667269 6.17660741 -0.0332368 7.97509766 -0.03710938 C10.65430146 -0.04670022 13.33269813 -0.07772329 16.01171875 -0.109375 C38.35209319 -0.24688233 59.37701048 4.09459434 80.453125 11.328125 C81.16557373 11.56958252 81.87802246 11.81104004 82.61206055 12.05981445 C88.9473064 14.32334258 88.9473064 14.32334258 90.953125 17.203125 C91.640625 19.390625 91.640625 19.390625 91.953125 21.203125 C90.640625 20.765625 89.328125 20.328125 88.015625 19.890625 C87.18675781 19.61476563 86.35789062 19.33890625 85.50390625 19.0546875 C83.93773514 18.53183099 82.37242234 18.00638421 80.80859375 17.4765625 C76.31081688 15.95783265 71.79432425 14.50201795 67.265625 13.078125 C66.20988281 12.74554688 65.15414062 12.41296875 64.06640625 12.0703125 C61.03660265 11.22637725 58.06260195 10.65998968 54.953125 10.203125 C54.953125 9.543125 54.953125 8.883125 54.953125 8.203125 C54.2003125 8.15414063 53.4475 8.10515625 52.671875 8.0546875 C46.77037111 7.63929038 40.98530245 7.05730967 35.140625 6.140625 C7.68751602 2.37801616 -19.84220801 5.66710259 -46.21191406 13.66552734 C-48.69802953 14.39389699 -51.21512902 14.97601782 -53.734375 15.578125 C-59.10425825 17.00397909 -63.97670421 19.37599245 -68.92260742 21.86669922 C-72.31665823 23.54727927 -74.16756774 24.203125 -78.046875 24.203125 C-78.046875 24.863125 -78.046875 25.523125 -78.046875 26.203125 C-83.796875 29.203125 -83.796875 29.203125 -86.046875 29.203125 C-86.046875 29.863125 -86.046875 30.523125 -86.046875 31.203125 C-87.160625 31.71875 -88.274375 32.234375 -89.421875 32.765625 C-95.46561322 35.77674013 -100.92827882 39.74078018 -106.21875 43.91796875 C-108.046875 45.203125 -108.046875 45.203125 -110.046875 45.203125 C-110.046875 45.863125 -110.046875 46.523125 -110.046875 47.203125 C-110.665625 47.285625 -111.284375 47.368125 -111.921875 47.453125 C-114.74327674 48.44891385 -114.76615458 49.56634766 -116.046875 52.203125 C-120.49131944 56.203125 -120.49131944 56.203125 -123.046875 56.203125 C-123.376875 57.193125 -123.706875 58.183125 -124.046875 59.203125 C-124.706875 59.203125 -125.366875 59.203125 -126.046875 59.203125 C-126.315 59.8425 -126.583125 60.481875 -126.859375 61.140625 C-128.046875 63.203125 -128.046875 63.203125 -131.046875 64.203125 C-131.170625 64.80125 -131.294375 65.399375 -131.421875 66.015625 C-132.046875 68.203125 -132.046875 68.203125 -134.25 69.92578125 C-137.51636874 72.58540831 -139.87490221 75.49847459 -142.421875 78.828125 C-142.89866699 79.44405518 -143.37545898 80.05998535 -143.86669922 80.69458008 C-151.01118479 89.35898489 -151.01118479 89.35898489 -156.046875 99.203125 C-156.706875 99.203125 -157.366875 99.203125 -158.046875 99.203125 C-158.13324219 99.86699219 -158.21960938 100.53085938 -158.30859375 101.21484375 C-159.27778393 105.13775637 -161.00663867 108.44128976 -162.859375 112.015625 C-163.37467773 113.02592773 -163.37467773 113.02592773 -163.90039062 114.05664062 C-165.29229769 116.78561414 -166.68429138 119.51390821 -168.1105957 122.22509766 C-170.42642578 126.69986318 -172.17282544 131.12746917 -173.609375 135.953125 C-173.81989502 136.64051758 -174.03041504 137.32791016 -174.24731445 138.03613281 C-175.81542766 143.22903941 -177.16683808 148.46014074 -178.37109375 153.75 C-179.046875 156.203125 -179.046875 156.203125 -180.03588867 158.07421875 C-189.42164167 177.83847041 -185.50192239 213.35473609 -181.42724609 234.20068359 C-180.8559044 237.20847858 -180.43337994 240.23753569 -179.984375 243.265625 C-179.45401379 246.78621325 -179.07736706 248.15738691 -177.046875 251.203125 C-176.41412983 253.6593267 -175.83901213 256.10235578 -175.296875 258.578125 C-173.7289767 265.41040299 -171.44484332 271.13911626 -168.12109375 277.3359375 C-166.84675262 280.73726984 -167.16484964 282.72660398 -168.046875 286.203125 C-178.37493182 274.3402486 -181.73283406 254.10152639 -185.046875 239.203125 C-185.22621582 238.43758301 -185.40555664 237.67204102 -185.59033203 236.88330078 C-191.00498373 212.91795557 -190.64255235 183.08907567 -185.046875 159.203125 C-184.84819824 158.30996582 -184.64952148 157.41680664 -184.44482422 156.49658203 C-172.78800677 104.93590259 -141.96196762 60.52362843 -98.046875 31.203125 C-92.21543197 27.54630399 -86.17508995 24.32900044 -80.046875 21.203125 C-79.37543457 20.85056641 -78.70399414 20.49800781 -78.01220703 20.13476562 C-54.42357263 7.81156824 -26.69436163 0.14309876 0 0 Z " fill="#F6F5F6" transform="translate(188.046875,-0.203125)"/>
<path d="M0 0 C2 3 2 3 3.6875 6.4375 C6.00842977 11.1489005 8.66163229 15.64619369 11.3359375 20.1640625 C12.64881784 22.40150646 13.8979975 24.65308071 15.125 26.9375 C17.09162956 30.14966162 19.27691824 32.41656346 22 35 C25 38.62068966 25 38.62068966 25 41 C25.66 41 26.32 41 27 41 C28.02611949 42.65071396 29.02308143 44.31970006 30 46 C30.556875 46.556875 31.11375 47.11375 31.6875 47.6875 C32.120625 48.120625 32.55375 48.55375 33 49 C33 49.66 33 50.32 33 51 C33.99 51.33 34.98 51.66 36 52 C37.54296875 53.63671875 37.54296875 53.63671875 39.1875 55.6875 C42.22006254 59.27903064 45.38611741 61.97126226 49.20703125 64.68359375 C51.35516128 66.26076111 53.15451701 68.0835369 55 70 C55.99 70.495 55.99 70.495 57 71 C57 71.66 57 72.32 57 73 C57.928125 73.4640625 57.928125 73.4640625 58.875 73.9375 C60.25 74.625 61.625 75.3125 63 76 C63 76.66 63 77.32 63 78 C63.680625 78.2475 64.36125 78.495 65.0625 78.75 C68.56865083 80.24197908 71.71620368 82.06835511 75 84 C75 84.66 75 85.32 75 86 C75.5671875 86.10828125 76.134375 86.2165625 76.71875 86.328125 C79.3396125 87.10002286 81.20703271 88.26721448 83.5 89.75 C89.10363096 93.18580292 94.89605695 95.59916424 101 98 C102.24944027 98.5112102 103.49811061 99.02430533 104.74609375 99.5390625 C114.065247 103.36432503 122.98794929 106.5983129 133 108 C133.63349365 108.32145996 134.2669873 108.64291992 134.91967773 108.97412109 C161.46884313 122.06643338 208.18458617 112.89480284 235.04321289 105.41137695 C237 105 237 105 241 105 C241 104.34 241 103.68 241 103 C243.64 102.67 246.28 102.34 249 102 C249 101.34 249 100.68 249 100 C250.75763672 99.36384766 250.75763672 99.36384766 252.55078125 98.71484375 C260.95947737 95.59974911 268.59386187 92.51141291 275.93359375 87.28515625 C278 86 278 86 281 86 C281 85.34 281 84.68 281 84 C283.08203125 82.4921875 283.08203125 82.4921875 285.8125 80.875 C286.70582031 80.33617187 287.59914063 79.79734375 288.51953125 79.2421875 C291 78 291 78 294 78 C294 77.01 294 76.02 294 75 C294.99 75 295.98 75 297 75 C297 74.34 297 73.68 297 73 C298.99284138 71.6559907 300.99419671 70.32458708 303 69 C303.845625 68.13375 304.69125 67.2675 305.5625 66.375 C308 64 308 64 310.6875 62.9375 C313.59426545 61.75908157 313.76618172 60.79665477 315 58 C317 55.75 317 55.75 319 54 C319.66 54 320.32 54 321 54 C321.4021875 53.1646875 321.4021875 53.1646875 321.8125 52.3125 C323.10899496 49.78774666 324.42476323 47.36285516 326 45 C326.66 45 327.32 45 328 45 C328 44.34 328 43.68 328 43 C328.66 43 329.32 43 330 43 C330.28875 42.4225 330.5775 41.845 330.875 41.25 C331.91666667 39.16666667 332.95833333 37.08333333 334 35 C334.99 35 335.98 35 337 35 C337.33 33.35 337.66 31.7 338 30 C338.66 30 339.32 30 340 30 C340.28875 29.21625 340.5775 28.4325 340.875 27.625 C342 25 342 25 344 23 C344.70710678 21.35008418 345.37943989 19.68437744 346 18 C348 21 348 21 347.95703125 23.22265625 C346.58622449 27.20079343 344.25137592 30.13401377 341.6875 33.4375 C341.15350586 34.13617188 340.61951172 34.83484375 340.06933594 35.5546875 C329.27871037 49.53761882 317.8696333 62.00689566 304 73 C302.55173828 74.19109375 302.55173828 74.19109375 301.07421875 75.40625 C270.54395385 99.92356565 229.26174257 115.9924058 189.953125 116.203125 C188.67619781 116.21167511 188.67619781 116.21167511 187.37347412 116.22039795 C185.57500427 116.22979769 183.77651759 116.2363618 181.97802734 116.24023438 C179.29882354 116.24982522 176.62042687 116.28084829 173.94140625 116.3125 C155.02660943 116.42892254 137.08831505 113.46069759 119 108 C118.30374512 107.79036621 117.60749023 107.58073242 116.89013672 107.36474609 C98.53059755 101.6850506 80.66690444 93.13333158 65 82 C64.00355469 81.29488281 63.00710937 80.58976562 61.98046875 79.86328125 C46.61066338 68.64312189 32.6989591 56.04151884 21 41 C20.35393799 40.17653076 20.35393799 40.17653076 19.69482422 39.33642578 C13.99965144 32.02813379 8.92185595 24.51575015 4.375 16.4375 C3.94904541 15.68782959 3.52309082 14.93815918 3.08422852 14.16577148 C0.88070064 10.13390979 -0.70472806 6.67513906 -1 2 C-0.67 1.34 -0.34 0.68 0 0 Z " fill="#F1EFF0" transform="translate(21,282)"/>
<path d="M0 0 C2.64 0.33 5.28 0.66 8 1 C8 1.66 8 2.32 8 3 C9.01707031 3.03867188 9.01707031 3.03867188 10.0546875 3.078125 C16.10017708 3.44654819 20.99529086 4.46165775 26.515625 6.96484375 C29.07998317 8.09779473 29.07998317 8.09779473 32.22265625 8.86328125 C36.79079739 10.23797522 40.90581997 12.16775412 45.1875 14.25 C46.02684082 14.65549072 46.86618164 15.06098145 47.73095703 15.47875977 C49.40060817 16.28660886 51.06925926 17.0965287 52.73681641 17.90869141 C54.62949743 18.82134342 56.53766448 19.70178798 58.44921875 20.57421875 C64.86555507 23.56394021 70.25173873 27.22149948 75.72607422 31.66186523 C78.16652316 33.64028743 79.98650121 34.9955004 83 36 C84.35824882 37.30794331 85.68456137 38.64900897 87 40 C88.3217887 41.22095121 89.65621123 42.42830499 91 43.625 C91.99 44.51058594 91.99 44.51058594 93 45.4140625 C94.91571153 47.0515281 94.91571153 47.0515281 97.05859375 47.99609375 C99.32316393 49.16710892 100.46869679 50.46118402 102.0625 52.4375 C103.48761871 54.18771211 104.87519381 55.87716443 106.484375 57.4609375 C108.24691014 59.25072834 109.6967965 61.16676859 111.1875 63.1875 C111.71730469 63.90292969 112.24710937 64.61835937 112.79296875 65.35546875 C113.19128906 65.89816406 113.58960938 66.44085938 114 67 C113.34 67 112.68 67 112 67 C112.33 68.32 112.66 69.64 113 71 C109.95713216 67.96927934 106.9356302 64.91900355 103.92578125 61.85546875 C91.79055444 49.54562491 79.51196766 39.33795646 65 30 C64.1234375 29.43152344 63.246875 28.86304687 62.34375 28.27734375 C51.29360212 21.37100133 39.17959929 16.5109627 27 12 C26.29746094 11.71382812 25.59492188 11.42765625 24.87109375 11.1328125 C19.6063282 9.0005275 14.23215619 7.91848707 8.66015625 6.84375 C7.78230469 6.5653125 6.90445313 6.286875 6 6 C5.67 5.01 5.34 4.02 5 3 C2.49552484 1.78130071 2.49552484 1.78130071 0 1 C0 0.67 0 0.34 0 0 Z " fill="#252323" transform="translate(235,7)"/>
<path d="M0 0 C-0.33 0.99 -0.66 1.98 -1 3 C-2.78735352 3.76782227 -2.78735352 3.76782227 -5.12890625 4.31640625 C-6.00095703 4.52330078 -6.87300781 4.73019531 -7.77148438 4.94335938 C-8.69251953 5.14767578 -9.61355469 5.35199219 -10.5625 5.5625 C-11.42552734 5.77068359 -12.28855469 5.97886719 -13.17773438 6.19335938 C-27.041848 9.39122795 -40.81964652 10.37893601 -55 10.3125 C-55.75104004 10.31167419 -56.50208008 10.31084839 -57.27587891 10.30999756 C-92.16659181 10.22227213 -92.16659181 10.22227213 -100 5 C-99.34 5 -98.68 5 -98 5 C-97.67 3.35 -97.34 1.7 -97 0 C-96.47792969 0.19335938 -95.95585937 0.38671875 -95.41796875 0.5859375 C-82.73284052 5.073496 -70.37825337 5.43410407 -57.0625 5.4375 C-55.67827347 5.44159378 -55.67827347 5.44159378 -54.26608276 5.44577026 C-39.09720362 5.45250286 -13.04436514 -4.04825125 0 0 Z " fill="#242323" transform="translate(255,386)"/>
<path d="M0 0 C0.99 0 1.98 0 3 0 C3.47384454 25.44666677 2.68586354 49.50603487 -5 74 C-5.52157709 75.87479324 -6.04254597 77.74975597 -6.5625 79.625 C-7.69197655 83.34525326 -9.20967576 86.69131364 -11.0234375 90.125 C-13.35072551 94.59339298 -15.15510666 99.3168092 -17 104 C-18.32 103.67 -19.64 103.34 -21 103 C-19.97747479 99.59158263 -18.77163493 96.45666511 -17.125 93.3125 C-2.39923729 64.60495287 -0.64166308 31.5620245 0 0 Z " fill="#2A2828" transform="translate(392,184)"/>
<path d="M0 0 C2.91517292 1.07401108 4.77810176 1.77810176 7 4 C7.24291992 6.02783203 7.24291992 6.02783203 7.23046875 8.5078125 C7.22853516 9.41273437 7.22660156 10.31765625 7.22460938 11.25 C7.21236328 12.19875 7.20011719 13.1475 7.1875 14.125 C7.18685547 15.05054688 7.18621094 15.97609375 7.18554688 16.9296875 C7.15095921 22.37147985 6.79173741 27.61618559 6 33 C6.66 33 7.32 33 8 33 C8 36.3 8 39.6 8 43 C6.68 43.66 5.36 44.32 4 45 C-1.25245399 40.24828706 -0.83870422 34.49820074 -1.1875 27.875 C-1.32388774 25.70554265 -1.46308182 23.53625937 -1.60546875 21.3671875 C-1.65856201 20.40925293 -1.71165527 19.45131836 -1.76635742 18.46435547 C-1.91928018 15.86670272 -1.91928018 15.86670272 -3 13 C-3.4068872 8.75115862 -3.69189114 5.18198069 -1.5 1.4375 C-0.7575 0.7259375 -0.7575 0.7259375 0 0 Z " fill="#ECECEB" transform="translate(183,25)"/>
<path d="M0 0 C2.8125 -0.25 2.8125 -0.25 6 0 C8.85475867 2.90123148 9.29451618 4.95108713 9.3125 8.9375 C9.66479322 15.05757059 11.91431746 19.52948549 14.8203125 24.859375 C16.24886412 28.66253893 15.85704292 31.07927493 15 35 C13.02 35.495 13.02 35.495 11 36 C5.24484405 30.62852111 3.97875276 26.0175512 2.73828125 18.3046875 C1.98959628 14.95343098 0.79856869 12.88163049 -1 10 C-1.25926574 6.24064683 -1.19211438 3.57634313 0 0 Z " fill="#EAEAE9" transform="translate(162,44)"/>
<path d="M0 0 C0.99 0.495 0.99 0.495 2 1 C-0.29271477 5.84866716 -3.53778674 7.88352308 -8.125 10.3125 C-8.8372876 10.69784912 -9.5495752 11.08319824 -10.28344727 11.48022461 C-12.51285766 12.67248407 -14.75427463 13.83881014 -17 15 C-17.66338379 15.34998047 -18.32676758 15.69996094 -19.01025391 16.06054688 C-50.02231622 32.27051373 -83.46777811 37.51143432 -118 35 C-118 34.67 -118 34.34 -118 34 C-117.29206299 33.98541748 -116.58412598 33.97083496 -115.85473633 33.95581055 C-95.47017888 33.4898684 -76.11698599 31.94731863 -56.39282227 26.62597656 C-55.61221436 26.41553711 -54.83160645 26.20509766 -54.02734375 25.98828125 C-53.00241821 25.70271362 -53.00241821 25.70271362 -51.95678711 25.41137695 C-50 25 -50 25 -46 25 C-46 24.34 -46 23.68 -46 23 C-42.04 22.505 -42.04 22.505 -38 22 C-38 21.34 -38 20.68 -38 20 C-36.82824219 19.57589844 -35.65648437 19.15179688 -34.44921875 18.71484375 C-26.04052263 15.59974911 -18.40613812 12.51141291 -11.06640625 7.28515625 C-9 6 -9 6 -6 6 C-6 5.34 -6 4.68 -6 4 C-4.03852126 2.61061923 -2.03833424 1.2739589 0 0 Z " fill="#E6E4E5" transform="translate(308,362)"/>
<path d="M0 0 C2.64 0 5.28 0 8 0 C10.42383518 2.42383518 9.53354865 8.59429037 9.71875 11.875 C9.65135448 14.8649801 9.65135448 14.8649801 11 16 C11.07179964 17.51928038 11.08392007 19.04167482 11.0625 20.5625 C11.05347656 21.38878906 11.04445312 22.21507813 11.03515625 23.06640625 C11.02355469 23.70449219 11.01195312 24.34257813 11 25 C10.34 25 9.68 25 9 25 C8.67 25.99 8.34 26.98 8 28 C5.36 27.67 2.72 27.34 0 27 C0 18.09 0 9.18 0 0 Z " fill="#DBDBDA" transform="translate(199,39)"/>
<path d="M0 0 C1.875 1.3125 1.875 1.3125 3.875 4.3125 C4.20227273 9.65795455 4.20227273 9.65795455 2.875 12.3125 C2.215 12.3125 1.555 12.3125 0.875 12.3125 C1.04902344 13.27285156 1.22304687 14.23320313 1.40234375 15.22265625 C2.05250505 19.77378537 1.75787958 24.17998787 1.4375 28.75 C1.38529297 29.57693359 1.33308594 30.40386719 1.27929688 31.25585938 C1.15090237 33.27515478 1.01384576 35.29389629 0.875 37.3125 C-0.115 37.8075 -0.115 37.8075 -1.125 38.3125 C-0.795 34.3525 -0.465 30.3925 -0.125 26.3125 C-2.435 25.9825 -4.745 25.6525 -7.125 25.3125 C-7.24604815 19.47528935 -7.13354673 13.6448332 -6.875 7.8125 C-6.82859375 6.6265625 -6.7821875 5.440625 -6.734375 4.21875 C-6.125 1.3125 -6.125 1.3125 -4.2109375 -0.13671875 C-2.125 -0.6875 -2.125 -0.6875 0 0 Z " fill="#E4E4E3" transform="translate(227.125,32.6875)"/>
<path d="M0 0 C3.42358279 1.41665495 5.06840665 2.83779476 7 6 C7.57065842 8.41771709 8.04070282 10.86024411 8.4375 13.3125 C9.17628325 17.58045696 9.86624673 21.43059201 12.25 25.125 C14 28 14 28 13.75 30.9375 C13.5025 31.618125 13.255 32.29875 13 33 C10.525 33.495 10.525 33.495 8 34 C5.92352929 30.88529393 5.6375889 29.55611254 5.3125 25.9375 C5.22613281 25.05964844 5.13976562 24.18179687 5.05078125 23.27734375 C5 21 5 21 6 19 C5.34 19 4.68 19 4 19 C3.72285156 18.37351562 3.44570312 17.74703125 3.16015625 17.1015625 C2.79792969 16.28429687 2.43570313 15.46703125 2.0625 14.625 C1.70285156 13.81289063 1.34320313 13.00078125 0.97265625 12.1640625 C0.3430097 10.76316215 -0.31312642 9.37374716 -1 8 C-1.125 4.4375 -1.125 4.4375 -1 1 C-0.67 0.67 -0.34 0.34 0 0 Z " fill="#1C1C1C" transform="translate(224,320)"/>
<path d="M0 0 C0.33 0.99 0.66 1.98 1 3 C0.34 3.66 -0.32 4.32 -1 5 C-0.34 5.66 0.32 6.32 1 7 C0.01 7 -0.98 7 -2 7 C-2 8.65 -2 10.3 -2 12 C-2.66 12 -3.32 12 -4 12 C-4.185625 12.70125 -4.37125 13.4025 -4.5625 14.125 C-6.55911406 18.11822812 -9.28680561 20.56056252 -13 23 C-16.3125 24 -16.3125 24 -19 24 C-19.66 23.34 -20.32 22.68 -21 22 C-20.90930232 18.64418571 -20.13531938 17.1649205 -18 14.5625 C-14.86255617 11.88260006 -11.61297272 9.65907731 -8.15625 7.41796875 C-3.3527692 4.3922304 -3.3527692 4.3922304 0 0 Z " fill="#131312" transform="translate(157,285)"/>
<path d="M0 0 C2 3 2 3 3.6875 6.4375 C6.00842977 11.1489005 8.66163229 15.64619369 11.3359375 20.1640625 C12.64881784 22.40150646 13.8979975 24.65308071 15.125 26.9375 C17.09162956 30.14966162 19.27691824 32.41656346 22 35 C25 38.62068966 25 38.62068966 25 41 C25.66 41 26.32 41 27 41 C27.33 42.32 27.66 43.64 28 45 C26.68 45 25.36 45 24 45 C21.93250477 42.77275773 20.2020443 40.64007312 18.4375 38.1875 C17.91881348 37.48206055 17.40012695 36.77662109 16.86572266 36.04980469 C10.91864108 27.78046073 5.82376534 18.96324478 1 10 C0.61730957 9.32485352 0.23461914 8.64970703 -0.15966797 7.95410156 C-1.38196557 5.11178025 -0.66982605 2.94723463 0 0 Z " fill="#E8E5E6" transform="translate(21,282)"/>
<path d="M0 0 C0.99 0 1.98 0 3 0 C5.47079679 9.05958824 6.17621551 17.62141898 6 27 C4.02 27.99 4.02 27.99 2 29 C-1 27 -1 27 -2 24 C-2.14843911 19.39838748 -1.92328612 15.50101985 -1 11 C-1 9.824375 -1 8.64875 -1 7.4375 C-1 4.65177174 -0.83739217 2.61685053 0 0 Z " fill="#181817" transform="translate(212,344)"/>
<path d="M0 0 C4.22032409 1.563083 6.28729631 4.52217476 9 8 C9.598125 8.7425 10.19625 9.485 10.8125 10.25 C12 12 12 12 12 14 C12.66 14 13.32 14 14 14 C15.75480563 16.42602631 17.36425438 18.83425644 18.9375 21.375 C19.39044434 22.10074219 19.84338867 22.82648438 20.31005859 23.57421875 C23.50053798 28.83214745 25.85809067 33.90981692 27 40 C26.34 40.66 25.68 41.32 25 42 C22.62700744 39.17500885 21.27068922 36.34868506 19.89453125 32.94140625 C18.54392277 30.01017299 16.77441336 27.38105133 14.98828125 24.69921875 C14 23 14 23 14 21 C13.34 21 12.68 21 12 21 C11.70867187 20.43152344 11.41734375 19.86304687 11.1171875 19.27734375 C8.96977396 15.23237296 6.84841583 11.64029558 3.75 8.25 C1.33794018 5.5967342 0.22373798 3.69167663 0 0 Z " fill="#272525" transform="translate(347,74)"/>
<path d="M0 0 C1.010625 0.0825 2.02125 0.165 3.0625 0.25 C5.27164 3.56371 5.28731553 4.5946021 5.1875 8.4375 C5.16945312 9.33855469 5.15140625 10.23960938 5.1328125 11.16796875 C5.09800781 12.19857422 5.09800781 12.19857422 5.0625 13.25 C4.4025 13.25 3.7425 13.25 3.0625 13.25 C2.7325 14.24 2.4025 15.23 2.0625 16.25 C-0.2475 16.25 -2.5575 16.25 -4.9375 16.25 C-7.36520106 8.39053615 -7.36520106 8.39053615 -5.625 3.75 C-3.28230813 0.27934537 -3.28230813 0.27934537 0 0 Z " fill="#EEEEEC" transform="translate(203.9375,20.75)"/>
<path d="M0 0 C1.32 0.33 2.64 0.66 4 1 C2.99806563 4.79303725 2.18975773 7.71536341 0 11 C-0.66 11 -1.32 11 -2 11 C-2.2475 12.051875 -2.495 13.10375 -2.75 14.1875 C-3.77388186 17.82633195 -5.48383885 20.15917289 -8 23 C-8.33 23.66 -8.66 24.32 -9 25 C-9.66 25 -10.32 25 -11 25 C-11 25.763125 -11 26.52625 -11 27.3125 C-12 30 -12 30 -13.84765625 31 C-15.88309495 31.74668651 -17.91262742 32.41515529 -20 33 C-18.37777643 29.43280681 -16.22263034 26.42580725 -13.9375 23.25 C-8.68684064 15.83711327 -4.33026466 7.97464815 0 0 Z " fill="#1F1E1D" transform="translate(370,287)"/>
<path d="M0 0 C2.97 0.495 2.97 0.495 6 1 C6.0272415 2.41655793 6.04650467 3.83327045 6.0625 5.25 C6.07410156 6.03890625 6.08570313 6.8278125 6.09765625 7.640625 C6.00342277 9.91730594 5.56152271 11.80293097 5 14 C5.020625 15.175625 5.04125 16.35125 5.0625 17.5625 C5 21 5 21 3 24 C1.68 23.67 0.36 23.34 -1 23 C-1.33 19.7 -1.66 16.4 -2 13 C-0.68 13 0.64 13 2 13 C2 12.34 2 11.68 2 11 C1.01 10.67 0.02 10.34 -1 10 C-0.67 6.7 -0.34 3.4 0 0 Z " fill="#1D1D1C" transform="translate(172,342)"/>
<path d="M0 0 C2 3 2 3 1.984375 5.19140625 C0.52279767 9.36154157 -2.05014812 12.4759042 -4.75 15.9375 C-5.2759375 16.62779297 -5.801875 17.31808594 -6.34375 18.02929688 C-7.8787969 20.03359698 -9.43313818 22.02050005 -11 24 C-11.70733276 24.89682495 -11.70733276 24.89682495 -12.42895508 25.81176758 C-15.72837735 29.89911159 -15.72837735 29.89911159 -18.1875 30.8125 C-18.785625 30.874375 -19.38375 30.93625 -20 31 C-20.66 31.33 -21.32 31.66 -22 32 C-21.34 30.35 -20.68 28.7 -20 27 C-19.34 27 -18.68 27 -18 27 C-18 26.34 -18 25.68 -18 25 C-17.34 25 -16.68 25 -16 25 C-15.566875 24.13375 -15.566875 24.13375 -15.125 23.25 C-14.08333333 21.16666667 -13.04166667 19.08333333 -12 17 C-11.01 17 -10.02 17 -9 17 C-8.67 15.35 -8.34 13.7 -8 12 C-7.34 12 -6.68 12 -6 12 C-5.71125 11.21625 -5.4225 10.4325 -5.125 9.625 C-4 7 -4 7 -2 5 C-1.29289322 3.35008418 -0.62056011 1.68437744 0 0 Z " fill="#ECEAEB" transform="translate(367,300)"/>
<path d="M0 0 C6.58716684 1.06064551 13.08182837 2.42369945 19.5625 4 C20.26503906 4.1659668 20.96757812 4.33193359 21.69140625 4.50292969 C26.76353101 5.76353101 26.76353101 5.76353101 29 8 C28.34 8.66 27.68 9.32 27 10 C25.98758315 11.32392972 24.98560611 12.65599167 24 14 C22.31199445 13.08426462 20.62462359 12.16735926 18.9375 11.25 C17.93203125 10.7034375 16.9265625 10.156875 15.890625 9.59375 C13.63073919 8.34775891 11.40499888 7.06851285 9.1875 5.75 C6.16364441 4.08984399 3.30334218 2.96683186 0 2 C0 1.34 0 0.68 0 0 Z " fill="#E6E6E5" transform="translate(230,10)"/>
<path d="M0 0 C0.99 0 1.98 0 3 0 C3.02486762 4.42911406 3.04293889 8.85819025 3.05493164 13.28735352 C3.05993555 14.7915925 3.06674073 16.29582668 3.07543945 17.80004883 C3.08767884 19.97218009 3.09326786 22.14424659 3.09765625 24.31640625 C3.10289307 25.62037354 3.10812988 26.92434082 3.11352539 28.26782227 C3.00145975 31.95201033 2.59374786 35.36971466 2 39 C1.34 39 0.68 39 0 39 C-0.33 39.66 -0.66 40.32 -1 41 C-1.07025156 31.7160612 -0.86072643 22.46401875 -0.5 13.1875 C-0.45230469 11.91068359 -0.40460938 10.63386719 -0.35546875 9.31835938 C-0.23913138 6.21215159 -0.12061062 3.10604428 0 0 Z " fill="#0B0A09" transform="translate(392,184)"/>
<path d="M0 0 C1.61050328 8.03501094 1.61050328 8.03501094 -0.9375 12.0625 C-1.618125 12.701875 -2.29875 13.34125 -3 14 C-5.4375 13.625 -5.4375 13.625 -8 13 C-9.59352059 9.81295882 -9.3829977 6.46825691 -9 3 C-6.87107064 -0.7847633 -4.02750676 -0.26850045 0 0 Z " fill="#181817" transform="translate(200,363)"/>
<path d="M0 0 C2.49361571 1.20381448 4.68143083 2.45428722 7 4 C6.88541307 5.43836751 6.75790884 6.87570966 6.625 8.3125 C6.55539063 9.11300781 6.48578125 9.91351563 6.4140625 10.73828125 C6 13 6 13 4 16 C1.03 15.505 1.03 15.505 -2 15 C-3.2019586 8.77166905 -2.93161919 5.62870885 0 0 Z " fill="#161616" transform="translate(175,325)"/>
<path d="M0 0 C1.32 0.33 2.64 0.66 4 1 C1.85160341 22.78726897 1.85160341 22.78726897 -1 28 C-3.1015625 29.25390625 -3.1015625 29.25390625 -5 30 C-4.89042969 29.42636719 -4.78085937 28.85273438 -4.66796875 28.26171875 C-2.91553311 18.87265298 -1.46687909 9.43692212 0 0 Z " fill="#1C1A1A" transform="translate(390,222)"/>
<path d="M0 0 C7.27031233 2.1810937 14.64379077 4.77972471 21 9 C21.84375 11.19140625 21.84375 11.19140625 22 13 C22.66 13 23.32 13 24 13 C23.67 13.66 23.34 14.32 23 15 C17.60053615 12.74422399 12.87938081 10.25292054 8 7 C4.7750792 5.75675853 4.7750792 5.75675853 2 5 C2 4.01 2 3.02 2 2 C1.01 1.67 0.02 1.34 -1 1 C-0.67 0.67 -0.34 0.34 0 0 Z " fill="#282525" transform="translate(281,23)"/>
<path d="M0 0 C1.99954746 -0.04254356 4.00041636 -0.04080783 6 0 C7 1 7 1 7.1328125 3.46875 C7.13023437 4.4690625 7.12765625 5.469375 7.125 6.5 C7.12757813 7.5003125 7.13015625 8.500625 7.1328125 9.53125 C7 12 7 12 6 13 C3.5 13.125 3.5 13.125 1 13 C0 12 0 12 -0.09765625 9.27734375 C-0.08605469 8.17519531 -0.07445312 7.07304687 -0.0625 5.9375 C-0.05347656 4.83277344 -0.04445312 3.72804688 -0.03515625 2.58984375 C-0.02355469 1.73519531 -0.01195312 0.88054687 0 0 Z " fill="#1D1D1D" transform="translate(192,347)"/>
<path d="M0 0 C0.33 0 0.66 0 1 0 C2.15316726 6.34241995 2.09507063 12.56688704 2 19 C1.34 19 0.68 19 0 19 C0 28.24 0 37.48 0 47 C-0.33 47 -0.66 47 -1 47 C-1.02505615 45.99211426 -1.0501123 44.98422852 -1.07592773 43.94580078 C-1.17097758 40.16233258 -1.27094904 36.37900694 -1.37231445 32.59570312 C-1.41529822 30.96650557 -1.45699424 29.33727346 -1.49731445 27.70800781 C-1.71134039 19.09412459 -1.97062455 10.56371169 -3 2 C-2.01 2.495 -2.01 2.495 -1 3 C-0.67 2.01 -0.34 1.02 0 0 Z " fill="#313030" transform="translate(392,165)"/>
<path d="M0 0 C0.99 0.33 1.98 0.66 3 1 C4.1328125 3.36328125 4.1328125 3.36328125 5.125 6.3125 C5.45757812 7.27800781 5.79015625 8.24351562 6.1328125 9.23828125 C7.76463699 14.4351277 8.09074719 18.55516841 8 24 C7.34 24.33 6.68 24.66 6 25 C2.1811099 17.3622198 0 8.53576001 0 0 Z " fill="#272625" transform="translate(384,144)"/>
<path d="M0 0 C0 3.3 0 6.6 0 10 C-2.3260857 10.38063221 -4.66055264 10.71269945 -7 11 C-8 10 -8 10 -8.09765625 7.71484375 C-8.08605469 6.79832031 -8.07445312 5.88179688 -8.0625 4.9375 C-8.05347656 4.01839844 -8.04445312 3.09929687 -8.03515625 2.15234375 C-8.02355469 1.44207031 -8.01195312 0.73179687 -8 0 C-5.13822943 -1.43088528 -3.06624227 -0.59991697 0 0 Z " fill="#121211" transform="translate(199,334)"/>
<path d="M0 0 C2.64 0 5.28 0 8 0 C8 4.29 8 8.58 8 13 C6.35 13 4.7 13 3 13 C3 12.34 3 11.68 3 11 C2.34 10.67 1.68 10.34 1 10 C0.5859375 7.71484375 0.5859375 7.71484375 0.375 4.9375 C0.30023438 4.01839844 0.22546875 3.09929688 0.1484375 2.15234375 C0.09945312 1.44207031 0.05046875 0.73179688 0 0 Z " fill="#FAFAF8" transform="translate(199,39)"/>
<path d="M0 0 C2.0625 0.9375 2.0625 0.9375 3.875 3.6875 C5.12151808 7.09902318 5.16013864 8.54479875 4.0625 11.9375 C2.4125 12.2675 0.7625 12.5975 -0.9375 12.9375 C-2.96100324 9.90224514 -3.25874018 8.74323798 -3.5625 5.25 C-3.63726562 4.44175781 -3.71203125 3.63351562 -3.7890625 2.80078125 C-3.83804688 2.18589844 -3.88703125 1.57101562 -3.9375 0.9375 C-1.9375 -0.0625 -1.9375 -0.0625 0 0 Z " fill="#111111" transform="translate(232.9375,341.0625)"/>
<path d="M0 0 C0.66 0.33 1.32 0.66 2 1 C-1 3 -1 3 -4 3 C-3.67 4.32 -3.34 5.64 -3 7 C-5.64 7.33 -8.28 7.66 -11 8 C-11 8.66 -11 9.32 -11 10 C-13.31 10.33 -15.62 10.66 -18 11 C-18.33 9.68 -18.66 8.36 -19 7 C-18.21496094 6.74605469 -17.42992187 6.49210937 -16.62109375 6.23046875 C-9.64895249 3.96873855 -9.64895249 3.96873855 -2.875 1.1875 C-1.92625 0.795625 -0.9775 0.40375 0 0 Z " fill="#272624" transform="translate(273,377)"/>
<path d="M0 0 C0.33 0 0.66 0 1 0 C1.68509036 5.30945029 -0.78904312 9.34827353 -3 14 C-3.59034513 15.35112463 -4.17450176 16.70498502 -4.75 18.0625 C-5.1625 19.031875 -5.575 20.00125 -6 21 C-7.32 20.67 -8.64 20.34 -10 20 C-8.6128558 15.40639183 -6.73993255 11.39340498 -4.4375 7.1875 C-3.50744141 5.47626953 -3.50744141 5.47626953 -2.55859375 3.73046875 C-1 1 -1 1 0 0 Z " fill="#1F1C1B" transform="translate(381,267)"/>
<path d="M0 0 C7.92 0 15.84 0 24 0 C23.01 0.495 23.01 0.495 22 1 C22 1.66 22 2.32 22 3 C14.74 3 7.48 3 0 3 C0 2.01 0 1.02 0 0 Z " fill="#040102" transform="translate(189,393)"/>
<path d="M0 0 C-0.33 0.99 -0.66 1.98 -1 3 C-7.45773293 5.51076656 -14.1222966 6.39679058 -21 6 C-20.67 5.34 -20.34 4.68 -20 4 C-19.34 4 -18.68 4 -18 4 C-18 3.34 -18 2.68 -18 2 C-15.75256955 1.46818825 -13.50192898 0.94992874 -11.25 0.4375 C-9.99703125 0.14746094 -8.7440625 -0.14257812 -7.453125 -0.44140625 C-4.40526252 -0.93444283 -2.82358172 -1.07666879 0 0 Z " fill="#171616" transform="translate(255,386)"/>
<path d="M0 0 C1.4540625 0.0309375 1.4540625 0.0309375 2.9375 0.0625 C3.1875 6.6875 3.1875 6.6875 0.9375 10.0625 C-0.3825 9.7325 -1.7025 9.4025 -3.0625 9.0625 C-3.94140625 2.91015625 -3.94140625 2.91015625 -4.0625 1.0625 C-3.0625 0.0625 -3.0625 0.0625 0 0 Z " fill="#0A0A09" transform="translate(174.0625,355.9375)"/>
<path d="M0 0 C4.22032409 1.563083 6.28729631 4.52217476 9 8 C9.61875 8.680625 10.2375 9.36125 10.875 10.0625 C12 12 12 12 11.6875 14.75 C11.460625 15.4925 11.23375 16.235 11 17 C10.46375 16.319375 9.9275 15.63875 9.375 14.9375 C8.09713118 13.35697804 6.80436082 11.78582145 5.43359375 10.28515625 C0.27935021 4.60927842 0.27935021 4.60927842 0 0 Z " fill="#161616" transform="translate(347,74)"/>
<path d="M0 0 C4.8274799 1.41292095 8.7162359 3.42974154 13 6 C13 6.66 13 7.32 13 8 C13.66 8.33 14.32 8.66 15 9 C15 9.66 15 10.32 15 11 C14.29488281 10.71382812 13.58976562 10.42765625 12.86328125 10.1328125 C9.98794768 8.99523169 7.09547814 7.92607644 4.1875 6.875 C2.72376953 6.34519531 2.72376953 6.34519531 1.23046875 5.8046875 C0.49441406 5.53914063 -0.24164063 5.27359375 -1 5 C-0.34 4.34 0.32 3.68 1 3 C0.67 2.01 0.34 1.02 0 0 Z " fill="#353332" transform="translate(268,16)"/>
<path d="M0 0 C0.33 0 0.66 0 1 0 C1.0825 1.11375 1.165 2.2275 1.25 3.375 C1.57873787 7.05753944 1.57873787 7.05753944 4.0625 8.4375 C4.701875 8.623125 5.34125 8.80875 6 9 C6 7.35 6 5.7 6 4 C6.66 4 7.32 4 8 4 C8 7.3 8 10.6 8 14 C6.02 14.99 6.02 14.99 4 16 C1.34493073 13.59384348 0.07835303 11.82040233 -0.265625 8.21875 C-0.25145444 5.46966145 -0.17296687 2.74344679 0 0 Z " fill="#D2D2D1" transform="translate(183,54)"/>
<path d="M0 0 C10.23 0 20.46 0 31 0 C31 0.33 31 0.66 31 1 C23.74 1 16.48 1 9 1 C9 1.99 9 2.98 9 4 C6.69 4 4.38 4 2 4 C1.34 2.68 0.68 1.36 0 0 Z " fill="#3E3E3E" transform="translate(180,392)"/>
<path d="M0 0 C2.64 0.33 5.28 0.66 8 1 C8 1.66 8 2.32 8 3 C11.63 3.33 15.26 3.66 19 4 C18.01 4.33 17.02 4.66 16 5 C16 5.99 16 6.98 16 8 C12.7 7.34 9.4 6.68 6 6 C5.67 5.01 5.34 4.02 5 3 C2.49552484 1.78130071 2.49552484 1.78130071 0 1 C0 0.67 0 0.34 0 0 Z " fill="#2D2C2C" transform="translate(235,7)"/>
<path d="M0 0 C4 2 4 2 5 3 C5.14115161 5.67058851 5.04247107 8.32432238 5 11 C2.83125748 10.49396008 1.00032373 10.00016187 -1 9 C-0.67 6.03 -0.34 3.06 0 0 Z " fill="#262625" transform="translate(210,331)"/>
<path d="M0 0 C3.35620271 1.38877354 5.07298728 2.91677965 7 6 C7 6.66 7 7.32 7 8 C7.66 8 8.32 8 9 8 C9.33 9.32 9.66 10.64 10 12 C6 12 6 12 4.04296875 10.13671875 C3.43066406 9.32847656 2.81835938 8.52023437 2.1875 7.6875 C1.24970703 6.48673828 1.24970703 6.48673828 0.29296875 5.26171875 C-0.13371094 4.51535156 -0.56039062 3.76898438 -1 3 C-0.67 2.01 -0.34 1.02 0 0 Z " fill="#E3E2E2" transform="translate(39,315)"/>
<path d="M0 0 C3.35437341 3.00736926 5.0345521 5.97976565 7 10 C7.66 10.33 8.32 10.66 9 11 C8.67 11.99 8.34 12.98 8 14 C4.65927822 12.61220551 3.09800579 11.18411804 1.1875 8.125 C0.74792969 7.44695312 0.30835937 6.76890625 -0.14453125 6.0703125 C-1.16843185 3.59237953 -0.90457722 2.47510086 0 0 Z " fill="#F0EEEF" transform="translate(31,302)"/>
<path d="M0 0 C0.66 0 1.32 0 2 0 C3.98 3.63 5.96 7.26 8 11 C6.68 11.33 5.36 11.66 4 12 C3.34 10.35 2.68 8.7 2 7 C1.34 7 0.68 7 0 7 C-0.38133299 5.0085944 -0.71325582 3.00720923 -1 1 C-0.67 0.67 -0.34 0.34 0 0 Z " fill="#2A2929" transform="translate(359,88)"/>
<path d="M0 0 C1.32 0.33 2.64 0.66 4 1 C2.03370787 9.01642178 2.03370787 9.01642178 -1 11 C-2.32 11 -3.64 11 -5 11 C-3.55049545 7.2089881 -1.84827434 3.6125362 0 0 Z " fill="#272525" transform="translate(370,287)"/>
<path d="M0 0 C4.23412942 1.51218908 5.69260682 4.27839809 8 8 C8.98866506 9.34175973 9.9838154 10.67896002 11 12 C10.34 12 9.68 12 9 12 C9.33 13.32 9.66 14.64 10 16 C7.06799526 13.14723863 4.35684596 10.34920216 2 7 C2.66 7 3.32 7 4 7 C3.73323796 5.01508358 3.73323796 5.01508358 3 3 C2.01 2.67 1.02 2.34 0 2 C0 1.34 0 0.68 0 0 Z " fill="#383436" transform="translate(338,62)"/>
<path d="M0 0 C1.58246707 -0.08153933 3.16616273 -0.13943557 4.75 -0.1875 C6.07257813 -0.23970703 6.07257813 -0.23970703 7.421875 -0.29296875 C10.44671583 0.05076316 11.75583602 1.00227459 14 3 C13 4 13 4 9.875 4.1875 C5.82754737 3.99165552 2.82368327 3.24854964 -1 2 C-0.67 1.34 -0.34 0.68 0 0 Z " fill="#0F0E0D" transform="translate(168,391)"/>
<path d="M0 0 C1.75128818 0.28382946 3.50100003 0.57739529 5.25 0.875 C6.71179688 1.11863281 6.71179688 1.11863281 8.203125 1.3671875 C10.77264117 1.94855848 12.72071056 2.70840265 15 4 C14.01 4 13.02 4 12 4 C12.33 4.99 12.66 5.98 13 7 C12.34 6.731875 11.68 6.46375 11 6.1875 C7.35060933 4.74294953 3.67754567 3.37128822 0 2 C0 1.34 0 0.68 0 0 Z " fill="#C9C9C8" transform="translate(230,10)"/>
<path d="M0 0 C0.99 0.33 1.98 0.66 3 1 C1.52631579 5.66666667 1.52631579 5.66666667 -0.875 7.1875 C-1.57625 7.455625 -2.2775 7.72375 -3 8 C-4.11375 8.556875 -4.11375 8.556875 -5.25 9.125 C-5.8275 9.41375 -6.405 9.7025 -7 10 C-6.34 8.35 -5.68 6.7 -5 5 C-4.34 5 -3.68 5 -3 5 C-3 4.34 -3 3.68 -3 3 C-2.34 3 -1.68 3 -1 3 C-0.67 2.01 -0.34 1.02 0 0 Z " fill="#DFDBDC" transform="translate(352,322)"/>
<path d="M0 0 C1.48484412 0.39595843 2.9628831 0.81750706 4.4375 1.25 C5.26121094 1.48203125 6.08492188 1.7140625 6.93359375 1.953125 C7.61550781 2.29859375 8.29742187 2.6440625 9 3 C9.33 4.32 9.66 5.64 10 7 C7.36 6.34 4.72 5.68 2 5 C2 4.01 2 3.02 2 2 C1.01 1.67 0.02 1.34 -1 1 C-0.67 0.67 -0.34 0.34 0 0 Z " fill="#1D1C1B" transform="translate(281,23)"/>
<path d="M0 0 C-2.35548955 2.35548955 -3.65714961 2.58160378 -6.875 3.25 C-8.17050781 3.53617187 -8.17050781 3.53617187 -9.4921875 3.828125 C-12.32790954 4.02247355 -13.61957818 3.48361174 -16 2 C-14.08654673 1.46748234 -12.1690705 0.94940517 -10.25 0.4375 C-9.18265625 0.14746094 -8.1153125 -0.14257812 -7.015625 -0.44140625 C-4.15664073 -0.97098494 -2.68402617 -0.98370862 0 0 Z " fill="#DFDBDA" transform="translate(258,389)"/>
<path d="M0 0 C0.66 0 1.32 0 2 0 C2 0.99 2 1.98 2 3 C-1.33333333 6 -1.33333333 6 -4 6 C-4 6.66 -4 7.32 -4 8 C-5.32 8.33 -6.64 8.66 -8 9 C-7.875 6.6875 -7.875 6.6875 -7 4 C-4 2.25 -4 2.25 -1 1 C-0.67 0.67 -0.34 0.34 0 0 Z " fill="#1A1819" transform="translate(322,349)"/>
<path d="M0 0 C3 1 3 1 4.1875 3.1875 C5.07334979 6.25390311 5.14770318 8.82438155 5 12 C4.01 11.67 3.02 11.34 2 11 C0.60955102 7.12137916 0 4.13537997 0 0 Z " fill="#11100E" transform="translate(384,144)"/>
<path d="M0 0 C1.2065625 0.0309375 1.2065625 0.0309375 2.4375 0.0625 C1.4375 3.0625 1.4375 3.0625 -1.875 4.75 C-5.5625 6.0625 -5.5625 6.0625 -9.5625 6.0625 C-9.5625 5.4025 -9.5625 4.7425 -9.5625 4.0625 C-8.593125 3.588125 -7.62375 3.11375 -6.625 2.625 C-1.55430328 0.03790984 -1.55430328 0.03790984 0 0 Z " fill="#100E0F" transform="translate(278.5625,375.9375)"/>
<path d="M0 0 C5.45479185 0.56820748 9.91059256 1.94637945 15 4 C15 4.66 15 5.32 15 6 C9.55432314 4.97137215 4.88182883 3.75385216 0 1 C0 0.67 0 0.34 0 0 Z " fill="#F8F7F7" transform="translate(122,382)"/>
<path d="M0 0 C0.33 1.32 0.66 2.64 1 4 C0.01 5.485 0.01 5.485 -1 7 C-1.66 7 -2.32 7 -3 7 C-3.33 7.66 -3.66 8.32 -4 9 C-4 8.34 -4 7.68 -4 7 C-5.32 7.99 -6.64 8.98 -8 10 C-8.66 9.67 -9.32 9.34 -10 9 C-6.7 6.03 -3.4 3.06 0 0 Z " fill="#383537" transform="translate(328,342)"/>
<path d="M0 0 C0.66 0.33 1.32 0.66 2 1 C0.89904638 4.30286086 0.3103981 4.78510901 -2.4375 6.6875 C-3.36369141 7.34298828 -3.36369141 7.34298828 -4.30859375 8.01171875 C-6 9 -6 9 -8 9 C-6.71700242 6.13792848 -5.469364 3.9754912 -3 2 C-2.01 2 -1.02 2 0 2 C0 1.34 0 0.68 0 0 Z " fill="#F7F7F7" transform="translate(315,358)"/>
<path d="M0 0 C1 3 1 3 -0.1875 6.125 C-2 9 -2 9 -4.1875 9.875 C-5.0846875 9.936875 -5.0846875 9.936875 -6 10 C-5.62403791 7.21788056 -5.32681541 5.4120716 -3.5625 3.1875 C-2 2 -2 2 0 2 C0 1.34 0 0.68 0 0 Z " fill="#1A1918" transform="translate(368,295)"/>
<path d="M0 0 C0.33 0 0.66 0 1 0 C1.125 3.375 1.125 3.375 1 7 C0.34 7.66 -0.32 8.32 -1 9 C-1.66 9 -2.32 9 -3 9 C-3.66 9.66 -4.32 10.32 -5 11 C-4.54824045 6.14358485 -3.34650039 3.55565666 0 0 Z " fill="#363637" transform="translate(387,249)"/>
<path d="M0 0 C-0.66 0.66 -1.32 1.32 -2 2 C-1.01 2.66 -0.02 3.32 1 4 C-3.455 4.495 -3.455 4.495 -8 5 C-8 4.34 -8 3.68 -8 3 C-8.66 2.34 -9.32 1.68 -10 1 C-6.59437148 0.22157062 -3.49234244 -0.09978121 0 0 Z " fill="#333231" transform="translate(237,389)"/>
<path d="M0 0 C0 0.66 0 1.32 0 2 C-0.99 2.66 -1.98 3.32 -3 4 C-2.01 4.33 -1.02 4.66 0 5 C-2.64738916 6.4606285 -3.89448334 7 -7 7 C-7 6.34 -7 5.68 -7 5 C-7.99 4.67 -8.98 4.34 -10 4 C-8.71086513 3.32845067 -7.41859796 2.66291141 -6.125 2 C-5.40570313 1.62875 -4.68640625 1.2575 -3.9453125 0.875 C-2 0 -2 0 0 0 Z " fill="#4A4847" transform="translate(288,371)"/>
<path d="M0 0 C0.66 0.99 1.32 1.98 2 3 C4.05925139 3.72382467 4.05925139 3.72382467 6 4 C5.34 4 4.68 4 4 4 C4 4.66 4 5.32 4 6 C3.01 6.495 3.01 6.495 2 7 C0.86649466 9.01669827 0.86649466 9.01669827 0 11 C-0.12375 10.071875 -0.12375 10.071875 -0.25 9.125 C-0.81258459 6.81562433 -0.81258459 6.81562433 -3.0625 5.75 C-3.701875 5.5025 -4.34125 5.255 -5 5 C-4.67 4.34 -4.34 3.68 -4 3 C-2.68 3.66 -1.36 4.32 0 5 C0 3.35 0 1.7 0 0 Z " fill="#C9C9C7" transform="translate(215,337)"/>
<path d="M0 0 C0.99 0.33 1.98 0.66 3 1 C3.33 1.99 3.66 2.98 4 4 C4.515625 4.515625 5.03125 5.03125 5.5625 5.5625 C6.036875 6.036875 6.51125 6.51125 7 7 C7 7.66 7 8.32 7 9 C5.25 8.875 5.25 8.875 3 8 C0.75 4.9375 0.75 4.9375 -1 2 C-0.67 1.34 -0.34 0.68 0 0 Z " fill="#1A1B19" transform="translate(335,60)"/>
<path d="M0 0 C-0.33 0.66 -0.66 1.32 -1 2 C-3.64440639 2.8814688 -5.28060752 3.16174818 -8 3.1875 C-8.680625 3.20167969 -9.36125 3.21585937 -10.0625 3.23046875 C-12 3 -12 3 -15 1 C-9.92928099 0.28832014 -5.11791642 -0.10662326 0 0 Z " fill="#E6E3E4" transform="translate(232,394)"/>
<path d="M0 0 C0.66 0.66 1.32 1.32 2 2 C0.88200014 3.33920838 -0.24461897 4.67122556 -1.375 6 C-2.00148438 6.7425 -2.62796875 7.485 -3.2734375 8.25 C-3.84320313 8.8275 -4.41296875 9.405 -5 10 C-5.66 10 -6.32 10 -7 10 C-6.690625 9.401875 -6.38125 8.80375 -6.0625 8.1875 C-4.89790296 5.91043228 -4.89790296 5.91043228 -4 3 C-1.9375 1.3125 -1.9375 1.3125 0 0 Z " fill="#FAF9FA" transform="translate(348,329)"/>
<path d="M0 0 C0.33 0.99 0.66 1.98 1 3 C-2.63 6.63 -6.26 10.26 -10 14 C-10.66 13.67 -11.32 13.34 -12 13 C-11.46890625 12.48050781 -10.9378125 11.96101562 -10.390625 11.42578125 C-6.68949647 7.77192991 -3.12841559 4.17122079 0 0 Z " fill="#CFCFCF" transform="translate(274,163)"/>
<path d="M0 0 C0.66 0 1.32 0 2 0 C0.59155282 3.21524305 -1.10344786 5.32183868 -3.625 7.75 C-4.57246094 8.67039062 -4.57246094 8.67039062 -5.5390625 9.609375 C-6.02117187 10.06828125 -6.50328125 10.5271875 -7 11 C-7.66 10.67 -8.32 10.34 -9 10 C-7.5484451 8.32742645 -6.08855591 6.66208242 -4.625 5 C-3.81289062 4.071875 -3.00078125 3.14375 -2.1640625 2.1875 C-1.44992188 1.465625 -0.73578125 0.74375 0 0 Z " fill="#313131" transform="translate(248,108)"/>
<path d="M0 0 C3.36591866 1.44253657 5.51047079 3.33264727 8 6 C7.67 6.66 7.34 7.32 7 8 C5.1875 7.8125 5.1875 7.8125 3 7 C0 2.82142857 0 2.82142857 0 0 Z " fill="#222021" transform="translate(347,74)"/>
<path d="M0 0 C0.33 1.65 0.66 3.3 1 5 C-0.98 5.66 -2.96 6.32 -5 7 C-5 6.34 -5 5.68 -5 5 C-5.66 4.67 -6.32 4.34 -7 4 C-2.25 0 -2.25 0 0 0 Z " fill="#393837" transform="translate(314,355)"/>
<path d="M0 0 C0.66 0.33 1.32 0.66 2 1 C0.48021894 4.03956213 -0.51797133 5.72283352 -3.5 7.4375 C-4.325 7.623125 -5.15 7.80875 -6 8 C-6.99 7.34 -7.98 6.68 -9 6 C-8.01 6 -7.02 6 -6 6 C-6 5.34 -6 4.68 -6 4 C-4.03852126 2.61061923 -2.03833424 1.2739589 0 0 Z " fill="#DDD9DB" transform="translate(308,362)"/>
<path d="M0 0 C0.66 0.33 1.32 0.66 2 1 C1.6189482 3.76262553 1.16402868 4.84143894 -0.875 6.8125 C-1.57625 7.204375 -2.2775 7.59625 -3 8 C-3.99 7.67 -4.98 7.34 -6 7 C-6.33 6.34 -6.66 5.68 -7 5 C-6.01 5 -5.02 5 -4 5 C-4 4.34 -4 3.68 -4 3 C-2 1.375 -2 1.375 0 0 Z " fill="#E2DFE0" transform="translate(322,352)"/>
<path d="M0 0 C0.33 0 0.66 0 1 0 C1.19785783 3.56144099 1.11103658 6.04454879 -1 9 C-3.125 9.75 -3.125 9.75 -5 10 C-3.85017555 6.10828647 -2.70784225 3.06103907 0 0 Z " fill="#121210" transform="translate(381,267)"/>
<path d="M0 0 C0.33 0.66 0.66 1.32 1 2 C0.06421005 4.35981813 -0.93347808 6.69631264 -2 9 C-3.32 8.67 -4.64 8.34 -6 8 C-4.55746343 4.63408134 -2.66735273 2.48952921 0 0 Z " fill="#2B2929" transform="translate(347,323)"/>
<path d="M0 0 C1.98 0 3.96 0 6 0 C6 0.66 6 1.32 6 2 C1.05 3.485 1.05 3.485 -4 5 C-4 4.01 -4 3.02 -4 2 C-2.68 2 -1.36 2 0 2 C0 1.34 0 0.68 0 0 Z " fill="#F1EFEF" transform="translate(262,385)"/>
<path d="M0 0 C0.66 0.33 1.32 0.66 2 1 C0.046875 3.24609375 0.046875 3.24609375 -1.90625 5.4921875 C-3.19572458 6.95936421 -3.19572458 6.95936421 -3 9 C-3.66 9 -4.32 9 -5 9 C-5.33 9.66 -5.66 10.32 -6 11 C-6.99 10.67 -7.98 10.34 -9 10 C-6.03 6.7 -3.06 3.4 0 0 Z " fill="#312E2F" transform="translate(54,68)"/>
<path d="M0 0 C0.33 0 0.66 0 1 0 C1.33 2.31 1.66 4.62 2 7 C2.66 6.67 3.32 6.34 4 6 C4.33 6.99 4.66 7.98 5 9 C5.99 9.66 6.98 10.32 8 11 C2.25 11.125 2.25 11.125 0 10 C0 6.7 0 3.4 0 0 Z " fill="#E9E9E7" transform="translate(199,42)"/>
<path d="M0 0 C1.32 0 2.64 0 4 0 C5.75 2.5 5.75 2.5 7 5 C6.01 5.33 5.02 5.66 4 6 C1.8125 4.75 1.8125 4.75 0 3 C0 2.01 0 1.02 0 0 Z " fill="#1E1C1C" transform="translate(314,43)"/>
<path d="M0 0 C6.52307692 0.61538462 6.52307692 0.61538462 8.9375 2.5625 C9.288125 3.036875 9.63875 3.51125 10 4 C5.82412255 5.39195915 3.86525224 3.82323219 0 2 C0 1.34 0 0.68 0 0 Z " fill="#EAE8E7" transform="translate(114,378)"/>
<path d="M0 0 C1.32 0 2.64 0 4 0 C5.42944945 2.35438733 6.08661261 3.48032433 5.625 6.25 C5.41875 6.8275 5.2125 7.405 5 8 C5 7.01 5 6.02 5 5 C3.68 5.33 2.36 5.66 1 6 C0.67 4.02 0.34 2.04 0 0 Z " fill="#3E3D3E" transform="translate(382,140)"/>
<path d="M0 0 C3.34373475 0.55728913 6.03312999 1.35173889 9 3 C9 3.66 9 4.32 9 5 C6.36 4.67 3.72 4.34 1 4 C1.33 3.01 1.66 2.02 2 1 C1.34 0.67 0.68 0.34 0 0 Z " fill="#181716" transform="translate(232,7)"/>
<path d="M0 0 C0.33 0.66 0.66 1.32 1 2 C1.66 2 2.32 2 3 2 C3 2.99 3 3.98 3 5 C0.36 5.99 -2.28 6.98 -5 8 C-3.62845496 5.04590299 -2.01136276 2.55991624 0 0 Z " fill="#434240" transform="translate(355,312)"/>
<path d="M0 0 C1.10844919 3.32534757 0.84454356 5.62182575 0 9 C-1.32 9 -2.64 9 -4 9 C-2.94124926 5.59687262 -1.99097846 2.98646769 0 0 Z " fill="#C6C6C4" transform="translate(114,248)"/>
<path d="M0 0 C2.07087089 2.6553909 3.53232446 4.60935235 4 8 C3 9 2 10 1 11 C0 10 0 10 -0.09765625 7.71484375 C-0.08605469 6.79832031 -0.07445312 5.88179688 -0.0625 4.9375 C-0.05347656 4.01839844 -0.04445313 3.09929687 -0.03515625 2.15234375 C-0.02355469 1.44207031 -0.01195312 0.73179688 0 0 Z " fill="#3D3B3B" transform="translate(373,110)"/>
<path d="M0 0 C0.33 0.99 0.66 1.98 1 3 C0.34 3.66 -0.32 4.32 -1 5 C-0.34 5.66 0.32 6.32 1 7 C0.01 7 -0.98 7 -2 7 C-2 8.65 -2 10.3 -2 12 C-2.33 12 -2.66 12 -3 12 C-3 10.35 -3 8.7 -3 7 C-3.99 6.67 -4.98 6.34 -6 6 C-5.195625 5.38125 -4.39125 4.7625 -3.5625 4.125 C-0.96125481 2.25835959 -0.96125481 2.25835959 0 0 Z " fill="#464646" transform="translate(157,285)"/>
<path d="M0 0 C0.99 0 1.98 0 3 0 C4.4606285 2.64738916 5 3.89448334 5 7 C4.67 7.66 4.34 8.32 4 9 C2.35 7.02 0.7 5.04 -1 3 C-0.34 3 0.32 3 1 3 C1.33 2.34 1.66 1.68 2 1 C1.34 0.67 0.68 0.34 0 0 Z " fill="#4C4B4A" transform="translate(331,56)"/>
<path d="M0 0 C0.66 0.33 1.32 0.66 2 1 C-1 3 -1 3 -4 3 C-3.67 4.32 -3.34 5.64 -3 7 C-3.99 7 -4.98 7 -6 7 C-6.33 5.68 -6.66 4.36 -7 3 C-4.69631264 1.93347808 -2.35981813 0.93578995 0 0 Z " fill="#434141" transform="translate(273,377)"/>
<path d="M0 0 C0.66 0.33 1.32 0.66 2 1 C1.071875 2.1446875 1.071875 2.1446875 0.125 3.3125 C-2.05597052 5.99625809 -2.05597052 5.99625809 -4 9 C-4.66 9 -5.32 9 -6 9 C-4.68775452 5.06326356 -3.08089673 2.77280706 0 0 Z " fill="#100E0E" transform="translate(334,337)"/>
<path d="M0 0 C0.33 0 0.66 0 1 0 C1 2.31 1 4.62 1 7 C-0.98 7.99 -0.98 7.99 -3 9 C-2.25 2.25 -2.25 2.25 0 0 Z " fill="#0E0F0D" transform="translate(388,243)"/>
<path d="M0 0 C3.63 0.33 7.26 0.66 11 1 C7.3558226 3.4294516 5.28758728 3.16179575 1 3 C0.67 2.01 0.34 1.02 0 0 Z " fill="#E0DDDE" transform="translate(163,393)"/>
<path d="M0 0 C0.33 0.66 0.66 1.32 1 2 C2.32 1.67 3.64 1.34 5 1 C3.71034824 2.37562854 2.37310707 3.70766393 1 5 C0.34 5 -0.32 5 -1 5 C-1.33 5.66 -1.66 6.32 -2 7 C-2.66 6.67 -3.32 6.34 -4 6 C-2.68 4.02 -1.36 2.04 0 0 Z " fill="#474646" transform="translate(361,303)"/>
<path d="M0 0 C0.66 0.33 1.32 0.66 2 1 C-0.97 3.64 -3.94 6.28 -7 9 C-7.66 8.34 -8.32 7.68 -9 7 C-6.03 4.69 -3.06 2.38 0 0 Z " fill="#D1D1CF" transform="translate(260,177)"/>
<path d="M0 0 C1.65 0 3.3 0 5 0 C4.34 1.65 3.68 3.3 3 5 C2.34 4.67 1.68 4.34 1 4 C0.01 4.33 -0.98 4.66 -2 5 C-1.34 3.35 -0.68 1.7 0 0 Z " fill="#4C4A4C" transform="translate(367,293)"/>
<path d="M0 0 C1.98 0.99 1.98 0.99 4 2 C4 3.32 4 4.64 4 6 C3.01 6 2.02 6 1 6 C0.67 4.02 0.34 2.04 0 0 Z " fill="#0E0D0C" transform="translate(381,134)"/>
<path d="M0 0 C0.99 0.33 1.98 0.66 3 1 C3 2.98 3 4.96 3 7 C2.01 7 1.02 7 0 7 C-0.38133299 5.0085944 -0.71325582 3.00720923 -1 1 C-0.67 0.67 -0.34 0.34 0 0 Z " fill="#1E1C1C" transform="translate(375,117)"/>
<path d="M0 0 C0 1.65 0 3.3 0 5 C-1.98 5.99 -1.98 5.99 -4 7 C-4.66 6.34 -5.32 5.68 -6 5 C-1.125 0 -1.125 0 0 0 Z " fill="#222221" transform="translate(218,366)"/>
<path d="M0 0 C1.32 0 2.64 0 4 0 C3 3 3 3 0.9375 4.1875 C0.298125 4.455625 -0.34125 4.72375 -1 5 C-1 1 -1 1 0 0 Z " fill="#EDEDEC" transform="translate(320,345)"/>
<path d="M0 0 C1.74627478 2.61941217 2.38722388 4.03824877 3 7 C2.34 7 1.68 7 1 7 C0.34 7.66 -0.32 8.32 -1 9 C-1.33 7.35 -1.66 5.7 -2 4 C-1.34 4 -0.68 4 0 4 C0 2.68 0 1.36 0 0 Z " fill="#424041" transform="translate(378,120)"/>
<path d="M0 0 C0.93423645 3.01031744 1.04449911 3.86650268 0 7 C-1.32 7 -2.64 7 -4 7 C-2.79618552 4.50638429 -1.54571278 2.31856917 0 0 Z " fill="#CDCDCC" transform="translate(249,94)"/>
<path d="M0 0 C1.32 0.66 2.64 1.32 4 2 C3.34 3.32 2.68 4.64 2 6 C0.68 4.68 -0.64 3.36 -2 2 C-1.34 2 -0.68 2 0 2 C0 1.34 0 0.68 0 0 Z " fill="#353535" transform="translate(311,40)"/>
<path d="M0 0 C2.475 0.495 2.475 0.495 5 1 C5.33 1.99 5.66 2.98 6 4 C3.03 3.505 3.03 3.505 0 3 C0 2.01 0 1.02 0 0 Z " fill="#0F1310" transform="translate(264,16)"/>
<path d="M0 0 C2.64 0.33 5.28 0.66 8 1 C7.67 2.32 7.34 3.64 7 5 C7.99 5.33 8.98 5.66 10 6 C8.68 6 7.36 6 6 6 C5.67 5.01 5.34 4.02 5 3 C2.49552484 1.78130071 2.49552484 1.78130071 0 1 C0 0.67 0 0.34 0 0 Z " fill="#514E4D" transform="translate(235,7)"/>
<path d="M0 0 C1.32 0 2.64 0 4 0 C4.66 1.32 5.32 2.64 6 4 C4.02 4 2.04 4 0 4 C0 2.68 0 1.36 0 0 Z " fill="#2C2A2B" transform="translate(211,392)"/>
<path d="M0 0 C1.98 0 3.96 0 6 0 C6 0.99 6 1.98 6 3 C4.35 3 2.7 3 1 3 C0.67 2.01 0.34 1.02 0 0 Z " fill="#040403" transform="translate(215,392)"/>
<path d="M0 0 C2.31 0.33 4.62 0.66 7 1 C6.67 1.66 6.34 2.32 6 3 C4.35 3 2.7 3 1 3 C0.67 2.01 0.34 1.02 0 0 Z " fill="#020201" transform="translate(175,392)"/>
<path d="M0 0 C0.99 0.33 1.98 0.66 3 1 C3 1.66 3 2.32 3 3 C0.36 3.66 -2.28 4.32 -5 5 C-3.625 3.5 -3.625 3.5 -2 2 C-1.34 2 -0.68 2 0 2 C0 1.34 0 0.68 0 0 Z " fill="#141111" transform="translate(288,371)"/>
<path d="M0 0 C0.33 0.99 0.66 1.98 1 3 C0.01 4.485 0.01 4.485 -1 6 C-3.97 5.505 -3.97 5.505 -7 5 C-6.67 4.01 -6.34 3.02 -6 2 C-6 2.66 -6 3.32 -6 4 C-2.27385847 2.88145414 -2.27385847 2.88145414 0 0 Z " fill="#1E1E1D" transform="translate(180,335)"/>
<path d="M0 0 C0.99 0 1.98 0 3 0 C2.625 1.9375 2.625 1.9375 2 4 C1.01 4.495 1.01 4.495 0 5 C-0.66 4.67 -1.32 4.34 -2 4 C-1.34 2.68 -0.68 1.36 0 0 Z " fill="#F6F5F5" transform="translate(355,319)"/>
<path d="M0 0 C0 0.66 0 1.32 0 2 C-0.99 2.495 -0.99 2.495 -2 3 C-2.99 4.485 -2.99 4.485 -4 6 C-4 5.01 -4 4.02 -4 3 C-4.66 3 -5.32 3 -6 3 C-6 2.34 -6 1.68 -6 1 C-4 0 -4 0 0 0 Z " fill="#B8B8B7" transform="translate(178,295)"/>
<path d="M0 0 C1.32 0 2.64 0 4 0 C4 1.65 4 3.3 4 5 C3.01 5.495 3.01 5.495 2 6 C1.34 4.02 0.68 2.04 0 0 Z " fill="#181717" transform="translate(364,99)"/>
<path d="M0 0 C1.98 0.495 1.98 0.495 4 1 C4 1.99 4 2.98 4 4 C2.35 3.67 0.7 3.34 -1 3 C-0.67 2.01 -0.34 1.02 0 0 Z " fill="#1F1E20" transform="translate(307,38)"/>
</svg>
